Lexend-wght100.ufo
<glyph name="dollar" format="2">
  <advance width="578"/>
  <unicode hex="0024"/>
  <note>
dollar
</note>
  <anchor x="321" y="0" name="bottom"/>
  <anchor x="321" y="700" name="top"/>
  <outline>
    <contour>
      <point x="288" y="359.0" type="line"/>
      <point x="310" y="354.0" type="line"/>
      <point x="310" y="-91.0" type="line"/>
      <point x="288" y="-91.0" type="line"/>
    </contour>
    <contour>
      <point x="310" y="359.0" type="line"/>
      <point x="288" y="363.0" type="line"/>
      <point x="288" y="782.0" type="line"/>
      <point x="310" y="782.0" type="line"/>
    </contour>
    <contour>
      <point x="54.49990876338311" y="91.50069948072945" type="qcurve"/>
      <point x="68" y="110" type="line"/>
      <point x="109" y="62"/>
      <point x="226" y="12"/>
      <point x="298" y="12" type="qcurve" smooth="yes"/>
      <point x="382" y="12"/>
      <point x="504" y="105"/>
      <point x="504" y="173" type="qcurve" smooth="yes"/>
      <point x="504" y="247"/>
      <point x="389" y="313"/>
      <point x="294" y="347" type="qcurve" smooth="yes"/>
      <point x="190" y="384"/>
      <point x="88" y="454"/>
      <point x="88" y="529" type="qcurve" smooth="yes"/>
      <point x="88" y="608"/>
      <point x="208" y="703"/>
      <point x="298" y="703" type="qcurve"/>
      <point x="376" y="703"/>
      <point x="477" y="643"/>
      <point x="509" y="605" type="qcurve"/>
      <point x="494" y="590" type="line"/>
      <point x="465" y="624"/>
      <point x="365" y="681"/>
      <point x="299" y="681" type="qcurve"/>
      <point x="217" y="681"/>
      <point x="110" y="595"/>
      <point x="110" y="526" type="qcurve" smooth="yes"/>
      <point x="110" y="466"/>
      <point x="203" y="403"/>
      <point x="307" y="366" type="qcurve" smooth="yes"/>
      <point x="411" y="329"/>
      <point x="526" y="258"/>
      <point x="526" y="170" type="qcurve" smooth="yes"/>
      <point x="526" y="94"/>
      <point x="392" y="-10.0"/>
      <point x="297" y="-10.0" type="qcurve"/>
      <point x="225" y="-10.0"/>
      <point x="95" y="44"/>
    </contour>
  </outline>
</glyph>
<glyph name="percent" format="2">
  <advance width="831"/>
  <unicode hex="0025"/>
  <note>
percent
</note>
  <outline>
    <contour>
      <point x="347" y="518" type="qcurve"/>
      <point x="347" y="438"/>
      <point x="259" y="329"/>
      <point x="193" y="329" type="qcurve"/>
      <point x="125" y="329"/>
      <point x="40" y="436"/>
      <point x="40" y="518" type="qcurve"/>
      <point x="40" y="601"/>
      <point x="125" y="709"/>
      <point x="193" y="709" type="qcurve"/>
      <point x="260" y="709"/>
      <point x="347" y="601"/>
    </contour>
    <contour>
      <point x="62" y="518" type="qcurve"/>
      <point x="62" y="443"/>
      <point x="136" y="350"/>
      <point x="193" y="350" type="qcurve"/>
      <point x="249" y="350"/>
      <point x="325" y="443"/>
      <point x="325" y="518" type="qcurve"/>
      <point x="325" y="594"/>
      <point x="251" y="688"/>
      <point x="193" y="688" type="qcurve"/>
      <point x="136" y="688"/>
      <point x="62" y="593"/>
    </contour>
    <contour>
      <point x="791" y="180" type="qcurve"/>
      <point x="791" y="100"/>
      <point x="703" y="-9"/>
      <point x="637" y="-9" type="qcurve"/>
      <point x="569" y="-9"/>
      <point x="484" y="98"/>
      <point x="484" y="180" type="qcurve"/>
      <point x="484" y="263"/>
      <point x="569" y="371"/>
      <point x="637" y="371" type="qcurve"/>
      <point x="704" y="371"/>
      <point x="791" y="263"/>
    </contour>
    <contour>
      <point x="506" y="180" type="qcurve"/>
      <point x="506" y="105"/>
      <point x="580" y="12"/>
      <point x="637" y="12" type="qcurve"/>
      <point x="693" y="12"/>
      <point x="769" y="105"/>
      <point x="769" y="180" type="qcurve"/>
      <point x="769" y="256"/>
      <point x="695" y="350"/>
      <point x="637" y="350" type="qcurve"/>
      <point x="580" y="350"/>
      <point x="506" y="255"/>
    </contour>
    <contour>
      <point x="199" y="0" type="line"/>
      <point x="172" y="0" type="line"/>
      <point x="420" y="379" type="line"/>
      <point x="637" y="700" type="line"/>
      <point x="664" y="700" type="line"/>
      <point x="417" y="333" type="line"/>
    </contour>
  </outline>
</glyph>
<glyph name="asterisk" format="2">
  <advance width="402"/>
  <unicode hex="002A"/>
  <note>
asterisk
</note>
  <guideline x="202" y="553" angle="0" identifier="QH52E2CuIA"/>
  <guideline x="208" y="525" angle="0" identifier="Lwy9XVEImi"/>
  <outline>
    <contour>
      <point x="211" y="376.0" type="line"/>
      <point x="187" y="376.0" type="line"/>
      <point x="191" y="536" type="line"/>
      <point x="201" y="531" type="line"/>
      <point x="66" y="455" type="line"/>
      <point x="53" y="475" type="line"/>
      <point x="195" y="545" type="line"/>
      <point x="196" y="531" type="line"/>
      <point x="53" y="603" type="line"/>
      <point x="66" y="625" type="line"/>
      <point x="203" y="544" type="line"/>
      <point x="191" y="528" type="line"/>
      <point x="187" y="700.0" type="line"/>
      <point x="211" y="700.0" type="line"/>
      <point x="207" y="539" type="line"/>
      <point x="193" y="543" type="line"/>
      <point x="334" y="625" type="line"/>
      <point x="347" y="603" type="line"/>
      <point x="208" y="534" type="line"/>
      <point x="208" y="545" type="line"/>
      <point x="347" y="475" type="line"/>
      <point x="334" y="455" type="line"/>
      <point x="199" y="532" type="line"/>
      <point x="207" y="534" type="line"/>
    </contour>
  </outline>
</glyph>
<glyph name="plus" format="2">
  <advance width="590"/>
  <unicode hex="002B"/>
  <note>
plus
</note>
  <outline>
    <contour>
      <point x="530" y="277" type="line"/>
      <point x="60" y="277" type="line"/>
      <point x="60" y="299" type="line"/>
      <point x="530" y="299" type="line"/>
    </contour>
    <contour>
      <point x="306" y="42.0" type="line"/>
      <point x="284" y="42.0" type="line"/>
      <point x="284" y="525.0" type="line"/>
      <point x="306" y="525.0" type="line"/>
    </contour>
  </outline>
</glyph>
<glyph name="comma" format="2">
  <advance width="216"/>
  <unicode hex="002C"/>
  <note>
comma
</note>
  <outline>
    <contour>
      <point x="104" y="54" type="qcurve"/>
      <point x="126.0" y="54.0"/>
      <point x="150.0" y="23.0"/>
      <point x="150" y="-7" type="qcurve"/>
      <point x="150.0" y="-35.0"/>
      <point x="128" y="-86"/>
      <point x="86" y="-122" type="qcurve"/>
      <point x="77" y="-110" type="line"/>
      <point x="96" y="-89"/>
      <point x="122.0" y="-49"/>
      <point x="122" y="-36" type="qcurve"/>
      <point x="122.0" y="-20.0"/>
      <point x="107.0" y="-8.0"/>
      <point x="93" y="-3" type="qcurve" smooth="yes"/>
      <point x="85" y="0"/>
      <point x="74.0" y="15.0"/>
      <point x="74" y="26" type="qcurve"/>
      <point x="74.0" y="38.0"/>
      <point x="89.0" y="54.0"/>
    </contour>
  </outline>
</glyph>
<glyph name="period" format="2">
  <advance width="228"/>
  <unicode hex="002E"/>
  <note>
period
</note>
  <outline>
    <contour>
      <point x="144" y="26" type="qcurve" smooth="yes"/>
      <point x="144.0" y="13"/>
      <point x="128.0" y="-5.0"/>
      <point x="114.0" y="-5" type="qcurve" smooth="yes"/>
      <point x="100.0" y="-5.0"/>
      <point x="84.0" y="11"/>
      <point x="84" y="26" type="qcurve" smooth="yes"/>
      <point x="84.0" y="40"/>
      <point x="100.0" y="57.0"/>
      <point x="114.0" y="57" type="qcurve" smooth="yes"/>
      <point x="128.0" y="57.0"/>
      <point x="144.0" y="41"/>
    </contour>
  </outline>
</glyph>
<glyph name="six" format="2">
  <advance width="605"/>
  <unicode hex="0036"/>
  <outline>
    <contour>
      <point x="523" y="222" type="qcurve" smooth="yes"/>
      <point x="523.0" y="125.0"/>
      <point x="391" y="-10.0"/>
      <point x="295" y="-10" type="qcurve" smooth="yes"/>
      <point x="201" y="-10.0"/>
      <point x="68.0" y="126.0"/>
      <point x="68" y="233" type="qcurve"/>
      <point x="66.0" y="290.0"/>
      <point x="108" y="426"/>
      <point x="156" y="501" type="qcurve"/>
      <point x="288" y="700" type="line"/>
      <point x="310" y="700" type="line"/>
      <point x="312" y="695" type="line"/>
      <point x="183" y="501" type="line" smooth="yes"/>
      <point x="141.97967944807775" y="439.3105256816053"/>
      <point x="93.0" y="330.0"/>
      <point x="93" y="303" type="qcurve"/>
      <point x="87" y="306" type="line"/>
      <point x="122.02964405337977" y="382.06436994448177"/>
      <point x="230.69082125603865" y="455.0"/>
      <point x="295" y="455" type="qcurve" smooth="yes"/>
      <point x="391" y="455.0"/>
      <point x="523.0" y="321.0"/>
    </contour>
    <contour>
      <point x="92" y="221" type="qcurve" smooth="yes"/>
      <point x="92.0" y="133"/>
      <point x="211.0" y="12.0"/>
      <point x="298" y="12" type="qcurve" smooth="yes"/>
      <point x="382" y="12.0"/>
      <point x="500.0" y="134.0"/>
      <point x="500" y="223" type="qcurve" smooth="yes"/>
      <point x="500.0" y="311.0"/>
      <point x="382" y="433.0"/>
      <point x="298" y="433.0" type="qcurve" smooth="yes"/>
      <point x="211.0" y="433.0"/>
      <point x="92.0" y="310"/>
    </contour>
  </outline>
</glyph>
<glyph name="seven" format="2">
  <advance width="466"/>
  <unicode hex="0037"/>
  <outline>
    <contour>
      <point x="123.00212885439402" y="0.0" type="line"/>
      <point x="97" y="0.0" type="line"/>
      <point x="404" y="694" type="line"/>
      <point x="414.0" y="678" type="line"/>
      <point x="0" y="678" type="line"/>
      <point x="0" y="700.0" type="line"/>
      <point x="408" y="700.0" type="line"/>
      <point x="424" y="680" type="line"/>
    </contour>
  </outline>
</glyph>
<glyph name="nine" format="2">
  <advance width="548"/>
  <unicode hex="0039"/>
  <outline>
    <contour>
      <point x="47" y="478" type="qcurve" smooth="yes"/>
      <point x="47.0" y="575.0"/>
      <point x="179.0" y="710.0"/>
      <point x="275" y="710" type="qcurve" smooth="yes"/>
      <point x="369.4159292035398" y="710.0"/>
      <point x="502.0" y="579.037037037037"/>
      <point x="502" y="476" type="qcurve"/>
      <point x="502.0" y="406.75"/>
      <point x="441.9264691933609" y="268.7870934187281"/>
      <point x="403" y="199" type="qcurve" smooth="yes"/>
      <point x="292" y="0" type="line"/>
      <point x="270" y="0" type="line"/>
      <point x="268" y="5" type="line"/>
      <point x="478" y="384" type="line"/>
      <point x="481" y="387" type="line"/>
      <point x="443.0" y="314.0"/>
      <point x="339.0" y="245.0"/>
      <point x="275" y="245" type="qcurve" smooth="yes"/>
      <point x="179.0" y="245.0"/>
      <point x="47.0" y="379.0"/>
    </contour>
    <contour>
      <point x="478" y="479" type="qcurve" smooth="yes"/>
      <point x="478.0" y="567.0"/>
      <point x="359.0" y="688.0"/>
      <point x="272" y="688" type="qcurve" smooth="yes"/>
      <point x="188.0" y="688.0"/>
      <point x="70.0" y="566.0"/>
      <point x="70" y="477" type="qcurve" smooth="yes"/>
      <point x="70.0" y="389.0"/>
      <point x="188.0" y="267.0"/>
      <point x="272.0" y="267.0" type="qcurve" smooth="yes"/>
      <point x="359.0" y="267.0"/>
      <point x="478.0" y="390.0"/>
    </contour>
  </outline>
</glyph>
<glyph name="equal" format="2">
  <advance width="566"/>
  <unicode hex="003D"/>
  <note>
equal
</note>
  <outline>
    <contour>
      <point x="501" y="347" type="line"/>
      <point x="65" y="347" type="line"/>
      <point x="65" y="371" type="line"/>
      <point x="501" y="371" type="line"/>
    </contour>
    <contour>
      <point x="501" y="190" type="line"/>
      <point x="65" y="190" type="line"/>
      <point x="65" y="214" type="line"/>
      <point x="501" y="214" type="line"/>
    </contour>
  </outline>
</glyph>
<glyph name="A" format="2">
  <advance width="611"/>
  <unicode hex="0041"/>
  <note>
A
</note>
  <outline>
    <contour>
      <point x="304" y="682" type="qcurve"/>
      <point x="305" y="682" type="line"/>
      <point x="302.0815149688605" y="672.2717165628684"/>
      <point x="262.2986277661835" y="569.624134902567"/>
      <point x="237" y="503" type="qcurve" smooth="yes"/>
      <point x="46" y="0" type="line"/>
      <point x="20" y="0" type="line"/>
      <point x="289" y="700" type="line"/>
      <point x="322" y="700" type="line"/>
      <point x="591" y="0" type="line"/>
      <point x="565" y="0" type="line"/>
      <point x="372" y="504" type="line" smooth="yes"/>
      <point x="347.6414537512344" y="567.6098824320096"/>
      <point x="307.89076396276863" y="672.2730900930785"/>
    </contour>
    <contour>
      <point x="299" y="230" type="line"/>
      <point x="120" y="230" type="line"/>
      <point x="128" y="253" type="line"/>
      <point x="299" y="253" type="line"/>
    </contour>
    <contour>
      <point x="493" y="230" type="line"/>
      <point x="299" y="230" type="line"/>
      <point x="299" y="253" type="line"/>
      <point x="485" y="253" type="line"/>
    </contour>
  </outline>
</glyph>
<glyph name="D" format="2">
  <advance width="737"/>
  <unicode hex="0044"/>
  <note>
D
</note>
  <anchor x="335" y="0" name="bottom"/>
  <anchor x="147" y="350" name="center"/>
  <anchor x="325" y="700" name="top"/>
  <outline>
    <contour>
      <point x="110" y="700" type="line"/>
      <point x="357" y="700" type="line" smooth="yes"/>
      <point x="485" y="700"/>
      <point x="682" y="502"/>
      <point x="682" y="350" type="qcurve" smooth="yes"/>
      <point x="682" y="199"/>
      <point x="485" y="0"/>
      <point x="357" y="0" type="qcurve"/>
      <point x="110" y="0" type="line"/>
    </contour>
    <contour>
      <point x="122" y="22" type="line"/>
      <point x="352" y="22" type="line" smooth="yes"/>
      <point x="473" y="22"/>
      <point x="659" y="211"/>
      <point x="659" y="350" type="qcurve" smooth="yes"/>
      <point x="659" y="490"/>
      <point x="473" y="678"/>
      <point x="352" y="678" type="qcurve"/>
      <point x="121" y="678" type="line"/>
      <point x="132" y="689" type="line"/>
      <point x="132" y="13" type="line"/>
    </contour>
  </outline>
</glyph>
<glyph name="J" format="2">
  <advance width="559"/>
  <unicode hex="004A"/>
  <note>
J
</note>
  <anchor x="223" y="0" name="bottom"/>
  <anchor x="370" y="700" name="top"/>
  <outline>
    <contour>
      <point x="209" y="-10" type="qcurve"/>
      <point x="140" y="-10"/>
      <point x="44" y="60"/>
      <point x="20" y="120" type="qcurve"/>
      <point x="36" y="135" type="line"/>
      <point x="64" y="72"/>
      <point x="151" y="12"/>
      <point x="211" y="12" type="qcurve"/>
      <point x="286" y="12"/>
      <point x="381" y="107"/>
      <point x="381" y="213" type="qcurve"/>
      <point x="381" y="700" type="line"/>
      <point x="403" y="700" type="line"/>
      <point x="403" y="213" type="line"/>
      <point x="403" y="97"/>
      <point x="294" y="-10"/>
    </contour>
    <contour>
      <point x="509" y="700" type="line"/>
      <point x="509" y="678" type="line"/>
      <point x="252" y="678" type="line"/>
      <point x="252" y="700" type="line"/>
    </contour>
  </outline>
</glyph>
<glyph name="L" format="2">
  <advance width="533"/>
  <unicode hex="004C"/>
  <note>
L
</note>
  <anchor x="324" y="0" name="bottom"/>
  <anchor x="380" y="350" name="center"/>
  <anchor x="141" y="700" name="top"/>
  <anchor x="484" y="700" name="topright"/>
  <outline>
    <contour>
      <point x="122" y="22" type="line"/>
      <point x="483" y="22" type="line"/>
      <point x="483" y="0" type="line"/>
      <point x="110" y="0" type="line"/>
      <point x="110" y="700" type="line"/>
      <point x="132" y="700" type="line"/>
      <point x="132" y="13" type="line"/>
    </contour>
  </outline>
</glyph>
<glyph name="M" format="2">
  <advance width="828"/>
  <unicode hex="004D"/>
  <note>
M
</note>
  <anchor x="421" y="0" name="bottom"/>
  <anchor x="421" y="700.0" name="top"/>
  <outline>
    <contour>
      <point x="110" y="700" type="line"/>
      <point x="127" y="700" type="line"/>
      <point x="421" y="232" type="line"/>
      <point x="418" y="232" type="line"/>
      <point x="711" y="700" type="line"/>
      <point x="728" y="700" type="line"/>
      <point x="728" y="0" type="line"/>
      <point x="706" y="0" type="line"/>
      <point x="706" y="383" type="line" smooth="yes"/>
      <point x="706" y="472"/>
      <point x="706" y="614"/>
      <point x="709" y="684" type="qcurve"/>
      <point x="725" y="679" type="line"/>
      <point x="427" y="204" type="line"/>
      <point x="412" y="204" type="line"/>
      <point x="119" y="672" type="line"/>
      <point x="129" y="684" type="line"/>
      <point x="132" y="618"/>
      <point x="132" y="472"/>
      <point x="132" y="383" type="qcurve"/>
      <point x="132" y="0" type="line"/>
      <point x="110" y="0" type="line"/>
    </contour>
  </outline>
</glyph>
<glyph name="W" format="2">
  <advance width="849"/>
  <unicode hex="0057"/>
  <note>
W
</note>
  <anchor x="424" y="0" name="bottom"/>
  <anchor x="424" y="700" name="top"/>
  <outline>
    <contour>
      <point x="216" y="0" type="line"/>
      <point x="20" y="700" type="line"/>
      <point x="44" y="700" type="line"/>
      <point x="186" y="193" type="line" smooth="yes"/>
      <point x="207" y="117"/>
      <point x="213" y="91"/>
      <point x="236" y="15" type="qcurve"/>
      <point x="224" y="15" type="line"/>
      <point x="253.73116688386082" y="88.33687831352337"/>
      <point x="283.83961252039546" y="167.12497317904797"/>
      <point x="297" y="202" type="qcurve" smooth="yes"/>
      <point x="417" y="520" type="line"/>
      <point x="432" y="520" type="line"/>
      <point x="551" y="202" type="line" smooth="yes"/>
      <point x="564.0060389603394" y="167.24436647573165"/>
      <point x="596" y="88"/>
      <point x="625" y="15" type="qcurve"/>
      <point x="612" y="15" type="line"/>
      <point x="635" y="91"/>
      <point x="642" y="117"/>
      <point x="663" y="193" type="qcurve" smooth="yes"/>
      <point x="805" y="700" type="line"/>
      <point x="829" y="700" type="line"/>
      <point x="633" y="0" type="line"/>
      <point x="607" y="0" type="line"/>
      <point x="415" y="499" type="line"/>
      <point x="434" y="499" type="line"/>
      <point x="242" y="0" type="line"/>
    </contour>
  </outline>
</glyph>
<glyph name="a" format="2">
  <advance width="602"/>
  <unicode hex="0061"/>
  <note>
a
</note>
  <anchor x="311" y="-20" name="bottom"/>
  <anchor x="557" y="13" name="ogonek"/>
  <anchor x="307" y="530" name="top"/>
  <outline>
    <contour>
      <point x="512" y="525" type="line"/>
      <point x="532" y="525" type="line"/>
      <point x="532" y="0" type="line"/>
      <point x="510" y="0" type="line"/>
      <point x="510" y="172" type="line"/>
      <point x="519" y="175" type="line"/>
      <point x="501" y="94"/>
      <point x="377" y="-10"/>
      <point x="294" y="-10" type="qcurve"/>
      <point x="184" y="-10"/>
      <point x="40" y="141"/>
      <point x="40" y="258" type="qcurve"/>
      <point x="40.0" y="376.0"/>
      <point x="187.0" y="530.0"/>
      <point x="290" y="530" type="qcurve"/>
      <point x="374" y="530"/>
      <point x="502" y="430"/>
      <point x="516" y="350" type="qcurve"/>
      <point x="510" y="353" type="line"/>
    </contour>
    <contour>
      <point x="63" y="258" type="qcurve"/>
      <point x="63" y="152"/>
      <point x="191" y="12"/>
      <point x="294" y="12" type="qcurve"/>
      <point x="386" y="12"/>
      <point x="511" y="150"/>
      <point x="511" y="260" type="qcurve"/>
      <point x="511" y="368"/>
      <point x="386" y="508"/>
      <point x="292" y="508" type="qcurve"/>
      <point x="191" y="508"/>
      <point x="63" y="367"/>
    </contour>
  </outline>
</glyph>
<glyph name="c" format="2">
  <advance width="526"/>
  <unicode hex="0063"/>
  <note>
c
</note>
  <anchor x="272" y="0" name="bottom"/>
  <anchor x="312" y="530" name="top"/>
  <outline>
    <contour>
      <point x="306" y="508" type="qcurve"/>
      <point x="200.0" y="508.0"/>
      <point x="63.004097293388135" y="370.4384103925299"/>
      <point x="62" y="263" type="qcurve" smooth="yes"/>
      <point x="62.999999330878865" y="153.00007360332526"/>
      <point x="199.869918699187" y="12.0"/>
      <point x="306" y="12" type="qcurve"/>
      <point x="361.6111111111111" y="12.0"/>
      <point x="454.841863957882" y="54.81790395150049"/>
      <point x="488" y="93" type="qcurve"/>
      <point x="504" y="77" type="line"/>
      <point x="467.83514588876074" y="36.81682876528971"/>
      <point x="368" y="-10.0"/>
      <point x="306" y="-10" type="qcurve"/>
      <point x="189" y="-10.0"/>
      <point x="40.0" y="144.0"/>
      <point x="40" y="263" type="qcurve"/>
      <point x="40.0" y="380.4398496240601"/>
      <point x="189.0" y="530.0"/>
      <point x="306" y="530" type="qcurve"/>
      <point x="369.0" y="530.0"/>
      <point x="470.61416802696493" y="483.44095082632583"/>
      <point x="506" y="443" type="qcurve"/>
      <point x="490" y="426" type="line"/>
      <point x="456.6096386687629" y="464.44950698748517"/>
      <point x="363.0" y="508.0"/>
    </contour>
  </outline>
</glyph>
<glyph name="d" format="2">
  <advance width="604"/>
  <unicode hex="0064"/>
  <note>
d
</note>
  <anchor x="321" y="-20" name="bottom"/>
  <anchor x="486" y="614" name="center"/>
  <anchor x="321" y="530" name="top"/>
  <anchor x="608" y="700" name="topright"/>
  <outline>
    <contour>
      <point x="510" y="740" type="line"/>
      <point x="532" y="740" type="line"/>
      <point x="532" y="0" type="line"/>
      <point x="510" y="0" type="line"/>
      <point x="510" y="172" type="line"/>
      <point x="519" y="175" type="line"/>
      <point x="499" y="94"/>
      <point x="375" y="-10"/>
      <point x="294" y="-10" type="qcurve"/>
      <point x="184" y="-10"/>
      <point x="40" y="141"/>
      <point x="40" y="258" type="qcurve"/>
      <point x="40" y="376"/>
      <point x="187" y="530"/>
      <point x="290" y="530" type="qcurve"/>
      <point x="370" y="530"/>
      <point x="502" y="427"/>
      <point x="516" y="350" type="qcurve"/>
      <point x="510" y="353" type="line"/>
    </contour>
    <contour>
      <point x="62" y="258" type="qcurve"/>
      <point x="62" y="152"/>
      <point x="190" y="12"/>
      <point x="293" y="12" type="qcurve"/>
      <point x="385" y="12"/>
      <point x="510" y="150"/>
      <point x="510" y="260" type="qcurve"/>
      <point x="510" y="368"/>
      <point x="385" y="508"/>
      <point x="291" y="508" type="qcurve"/>
      <point x="190" y="508"/>
      <point x="62" y="367"/>
    </contour>
  </outline>
</glyph>
<glyph name="e" format="2">
  <advance width="545"/>
  <unicode hex="0065"/>
  <note>
e
</note>
  <anchor x="292" y="0" name="bottom"/>
  <anchor x="398" y="10" name="ogonek"/>
  <anchor x="293" y="530" name="top"/>
  <outline>
    <contour>
      <point x="472" y="83" type="qcurve"/>
      <point x="484" y="65" type="line"/>
      <point x="447" y="31"/>
      <point x="354" y="-10"/>
      <point x="297" y="-10" type="qcurve"/>
      <point x="183" y="-10"/>
      <point x="40" y="144"/>
      <point x="40" y="263" type="qcurve"/>
      <point x="40.0" y="380.4398496240601"/>
      <point x="177.0" y="530.0"/>
      <point x="285" y="530" type="qcurve"/>
      <point x="384.0" y="530.0"/>
      <point x="510.0" y="401.4621848739496"/>
      <point x="510" y="291" type="qcurve"/>
      <point x="509" y="265" type="line"/>
      <point x="52" y="265" type="line"/>
      <point x="52" y="287" type="line"/>
      <point x="498" y="287" type="line"/>
      <point x="486" y="270" type="line"/>
      <point x="488" y="295" type="line"/>
      <point x="488.0" y="390.4481132075472"/>
      <point x="371.0" y="508.0"/>
      <point x="288" y="508" type="qcurve"/>
      <point x="186.0" y="508.0"/>
      <point x="63" y="370"/>
      <point x="62" y="263" type="qcurve" smooth="yes"/>
      <point x="63" y="153"/>
      <point x="194" y="12"/>
      <point x="297" y="12" type="qcurve"/>
      <point x="349" y="12"/>
      <point x="437" y="50"/>
    </contour>
  </outline>
</glyph>
<glyph name="f" format="2">
  <advance width="340"/>
  <unicode hex="0066"/>
  <note>
f
</note>
  <anchor x="141.50112525160827" y="0" name="bottom"/>
  <anchor x="141.50112525160827" y="524.9996958779437" name="top"/>
  <outline>
    <contour>
      <point x="314" y="525" type="line"/>
      <point x="314" y="503" type="line"/>
      <point x="30" y="503" type="line"/>
      <point x="30" y="525" type="line"/>
    </contour>
    <contour>
      <point x="340" y="708" type="qcurve"/>
      <point x="326" y="693" type="line"/>
      <point x="308.4618250560607" y="713.4612041012624"/>
      <point x="269" y="728.0"/>
      <point x="243" y="728" type="qcurve"/>
      <point x="207.0" y="728.0"/>
      <point x="162" y="684.0"/>
      <point x="162" y="625" type="qcurve"/>
      <point x="162" y="0.0" type="line" smooth="yes"/>
      <point x="162" y="0"/>
      <point x="146" y="0.0"/>
      <point x="140" y="0.0" type="qcurve"/>
      <point x="140" y="626" type="line"/>
      <point x="140" y="692"/>
      <point x="198.0" y="750.0"/>
      <point x="245" y="750" type="qcurve"/>
      <point x="281.0" y="750.0"/>
      <point x="326.0" y="727.0"/>
    </contour>
  </outline>
</glyph>
<glyph name="h" format="2">
  <advance width="531"/>
  <unicode hex="0068"/>
  <note>
h
</note>
  <outline>
    <contour>
      <point x="283" y="530" type="qcurve"/>
      <point x="371" y="530"/>
      <point x="468" y="434"/>
      <point x="468" y="328" type="qcurve"/>
      <point x="468" y="0" type="line"/>
      <point x="446" y="0" type="line"/>
      <point x="446" y="328" type="line"/>
      <point x="446" y="423"/>
      <point x="360" y="508"/>
      <point x="281" y="508" type="qcurve"/>
      <point x="196" y="508"/>
      <point x="87" y="407"/>
      <point x="87" y="376" type="qcurve"/>
      <point x="87" y="0" type="line"/>
      <point x="79" y="0"/>
      <point x="72" y="0"/>
      <point x="65" y="0" type="qcurve"/>
      <point x="65" y="740" type="line"/>
      <point x="87" y="740" type="line"/>
      <point x="87" y="404" type="line"/>
      <point x="78" y="402" type="line"/>
      <point x="95" y="454"/>
      <point x="211" y="530"/>
    </contour>
  </outline>
</glyph>
<glyph name="l" format="2">
  <advance width="166"/>
  <unicode hex="006C"/>
  <note>
l
</note>
  <anchor x="83" y="0" name="bottom"/>
  <anchor x="204" y="289" name="center"/>
  <anchor x="84" y="740" name="top"/>
  <anchor x="201" y="700" name="topright"/>
  <outline>
    <contour>
      <point x="94" y="0" type="line"/>
      <point x="72" y="0" type="line"/>
      <point x="72" y="740" type="line"/>
      <point x="94" y="740" type="line"/>
    </contour>
  </outline>
</glyph>
<glyph name="n" format="2">
  <advance width="541"/>
  <unicode hex="006E"/>
  <note>
n
</note>
  <anchor x="285" y="0" name="bottom"/>
  <anchor x="285" y="510" name="top"/>
  <outline>
    <contour>
      <point x="288" y="530" type="qcurve"/>
      <point x="376" y="530"/>
      <point x="473" y="434"/>
      <point x="473" y="328" type="qcurve"/>
      <point x="473" y="0" type="line"/>
      <point x="451" y="0" type="line"/>
      <point x="451" y="328" type="line"/>
      <point x="451" y="423"/>
      <point x="365" y="508"/>
      <point x="286" y="508" type="qcurve"/>
      <point x="201" y="508"/>
      <point x="92" y="407"/>
      <point x="92" y="376" type="qcurve"/>
      <point x="92" y="0" type="line"/>
      <point x="84" y="0"/>
      <point x="77" y="0"/>
      <point x="70" y="0" type="qcurve"/>
      <point x="70" y="525" type="line"/>
      <point x="90" y="525" type="line"/>
      <point x="92" y="404" type="line"/>
      <point x="83" y="401" type="line"/>
      <point x="98.8876052317522" y="452.6347170031947"/>
      <point x="215.0" y="530.0"/>
    </contour>
  </outline>
</glyph>
<glyph name="o" format="2">
  <advance width="615"/>
  <unicode hex="006F"/>
  <note>
o
</note>
  <anchor x="308" y="0" name="bottom"/>
  <anchor x="307" y="256.0" name="center"/>
  <anchor x="549.0" y="10.0" name="ogonek"/>
  <anchor x="308" y="523" name="top"/>
  <anchor x="321" y="531.0" name="topright"/>
  <outline>
    <contour>
      <point x="308" y="530" type="qcurve"/>
      <point x="427.0" y="530.0"/>
      <point x="575.0" y="380"/>
      <point x="575" y="263" type="qcurve"/>
      <point x="575" y="144"/>
      <point x="427" y="-10"/>
      <point x="308" y="-10" type="qcurve"/>
      <point x="190" y="-10"/>
      <point x="40" y="144"/>
      <point x="40" y="263" type="qcurve"/>
      <point x="40.0" y="380"/>
      <point x="190.0" y="530.0"/>
    </contour>
    <contour>
      <point x="308" y="12" type="qcurve"/>
      <point x="414" y="12"/>
      <point x="553" y="153"/>
      <point x="553" y="263" type="qcurve" smooth="yes"/>
      <point x="553" y="369"/>
      <point x="414.0" y="508.0"/>
      <point x="308" y="508" type="qcurve"/>
      <point x="201.0" y="508.0"/>
      <point x="62" y="369"/>
      <point x="62" y="263" type="qcurve" smooth="yes"/>
      <point x="62" y="153"/>
      <point x="201" y="12"/>
    </contour>
  </outline>
</glyph>
<glyph name="p" format="2">
  <advance width="605"/>
  <unicode hex="0070"/>
  <note>
p
</note>
  <anchor x="334.9996350535325" y="0" name="bottom"/>
  <anchor x="333.4996654657381" y="524.9996958779437" name="top"/>
  <outline>
    <contour>
      <point x="311" y="530" type="qcurve"/>
      <point x="421.0" y="530.0"/>
      <point x="565.0" y="379.0"/>
      <point x="565" y="262" type="qcurve"/>
      <point x="565.0" y="144.0"/>
      <point x="418.0" y="-10.0"/>
      <point x="315" y="-10" type="qcurve"/>
      <point x="235.0" y="-10.0"/>
      <point x="103.0" y="93.0"/>
      <point x="89" y="170" type="qcurve"/>
      <point x="95" y="167" type="line"/>
      <point x="95" y="-230" type="line"/>
      <point x="73" y="-230" type="line"/>
      <point x="73" y="525" type="line"/>
      <point x="93" y="525" type="line"/>
      <point x="95" y="348" type="line"/>
      <point x="86" y="345" type="line"/>
      <point x="106.0" y="426.0"/>
      <point x="230.0" y="530.0"/>
    </contour>
    <contour>
      <point x="543" y="262" type="qcurve"/>
      <point x="543.0" y="368.0"/>
      <point x="415.0" y="508.0"/>
      <point x="312" y="508" type="qcurve"/>
      <point x="220.0" y="508.0"/>
      <point x="95.0" y="370.0"/>
      <point x="95" y="260" type="qcurve"/>
      <point x="95.0" y="152.0"/>
      <point x="220.0" y="12.0"/>
      <point x="314" y="12" type="qcurve"/>
      <point x="415.0" y="12.0"/>
      <point x="543.0" y="153.0"/>
    </contour>
  </outline>
</glyph>
<glyph name="r" format="2">
  <advance width="311"/>
  <unicode hex="0072"/>
  <note>
r
</note>
  <anchor x="84" y="1" name="bottom"/>
  <anchor x="190" y="511" name="top"/>
  <outline>
    <contour>
      <point x="316" y="522" type="qcurve"/>
      <point x="309" y="499" type="line"/>
      <point x="293" y="504"/>
      <point x="264" y="508"/>
      <point x="253" y="508" type="qcurve"/>
      <point x="172" y="508"/>
      <point x="92" y="392"/>
      <point x="92" y="338" type="qcurve"/>
      <point x="92" y="0" type="line"/>
      <point x="70" y="0" type="line"/>
      <point x="70" y="525" type="line"/>
      <point x="90" y="525" type="line"/>
      <point x="91" y="398" type="line"/>
      <point x="85" y="396" type="line"/>
      <point x="95" y="445"/>
      <point x="183" y="530"/>
      <point x="258" y="530" type="qcurve"/>
      <point x="275" y="530"/>
      <point x="304" y="526"/>
    </contour>
  </outline>
</glyph>
<glyph name="s" format="2">
  <advance width="479"/>
  <unicode hex="0073"/>
  <note>
s
</note>
  <outline>
    <contour>
      <point x="45.0" y="81.0" type="qcurve"/>
      <point x="63" y="97" type="line"/>
      <point x="93.69955712647786" y="57.38766822389953"/>
      <point x="192.0" y="12.0"/>
      <point x="250" y="12" type="qcurve"/>
      <point x="331" y="12.0"/>
      <point x="403.0" y="86.0"/>
      <point x="403" y="133" type="qcurve"/>
      <point x="403.0" y="182.0"/>
      <point x="320.0" y="238.0"/>
      <point x="241" y="256" type="qcurve" smooth="yes"/>
      <point x="154.2874399440242" y="275.93392185194847"/>
      <point x="65.0" y="343.6054421768707"/>
      <point x="65" y="393.0" type="qcurve"/>
      <point x="65.0" y="454.9761904761905"/>
      <point x="160.0" y="530.0"/>
      <point x="240" y="530" type="qcurve"/>
      <point x="293.0" y="530.0"/>
      <point x="386.77806474868487" y="486.09225779320104"/>
      <point x="422" y="445" type="qcurve"/>
      <point x="406" y="427" type="line"/>
      <point x="372.83434430072634" y="465.04295800799036"/>
      <point x="290.0" y="508.0"/>
      <point x="240" y="508" type="qcurve"/>
      <point x="167.0" y="508.0"/>
      <point x="87.0" y="443.43362831858406"/>
      <point x="87" y="394.0" type="qcurve"/>
      <point x="87.0" y="354"/>
      <point x="167.3034757620929" y="296.9299671318247"/>
      <point x="245" y="279" type="qcurve" smooth="yes"/>
      <point x="336.0" y="258.0"/>
      <point x="425" y="193"/>
      <point x="425" y="133" type="qcurve" smooth="yes"/>
      <point x="425.0" y="68"/>
      <point x="331.0" y="-10.0"/>
      <point x="248" y="-10.0" type="qcurve"/>
      <point x="178" y="-10.0"/>
      <point x="69.7294216675434" y="45.38963279873749"/>
    </contour>
  </outline>
</glyph>
<glyph name="u" format="2">
  <advance width="538"/>
  <unicode hex="0075"/>
  <note>
u
</note>
  <anchor x="245.00109483940264" y="0" name="bottom"/>
  <anchor x="443.0017639079265" y="14.999695877943713" name="ogonek"/>
  <anchor x="269.0006082441126" y="524.9996958779437" name="top"/>
  <anchor x="537.4969283672315" y="514.0003649464676" name="topright"/>
  <outline>
    <contour>
      <point x="265" y="12" type="qcurve"/>
      <point x="338.0" y="12.0"/>
      <point x="444.0" y="116.82575757575756"/>
      <point x="444" y="149" type="qcurve"/>
      <point x="444" y="525" type="line"/>
      <point x="466" y="525" type="line"/>
      <point x="466" y="0" type="line"/>
      <point x="446" y="0" type="line"/>
      <point x="444" y="121" type="line"/>
      <point x="453" y="123" type="line"/>
      <point x="435.48201374051837" y="69.41557144158563"/>
      <point x="330.0" y="-10.0"/>
      <point x="263" y="-10" type="qcurve"/>
      <point x="172.0" y="-10.0"/>
      <point x="73.0" y="88.37623762376238"/>
      <point x="73" y="197" type="qcurve"/>
      <point x="73" y="525" type="line"/>
      <point x="95" y="525" type="line"/>
      <point x="95" y="197" type="line"/>
      <point x="95.0" y="99.36111111111111"/>
      <point x="183.0" y="12.0"/>
    </contour>
  </outline>
</glyph>
<glyph name="v" format="2">
  <advance width="467"/>
  <unicode hex="0076"/>
  <note>
v
</note>
  <anchor x="230" y="0" name="bottom"/>
  <anchor x="230" y="525" name="top"/>
  <outline>
    <contour>
      <point x="15" y="525" type="line"/>
      <point x="40" y="525" type="line"/>
      <point x="240" y="24" type="line"/>
      <point x="227" y="24" type="line"/>
      <point x="427" y="525" type="line"/>
      <point x="452" y="525" type="line"/>
      <point x="241" y="0" type="line"/>
      <point x="226" y="0" type="line"/>
    </contour>
  </outline>
</glyph>
<glyph name="w" format="2">
  <advance width="743"/>
  <unicode hex="0077"/>
  <note>
w
</note>
  <anchor x="372" y="0" name="bottom"/>
  <anchor x="372" y="505" name="top"/>
  <outline>
    <contour>
      <point x="704" y="525" type="line"/>
      <point x="728" y="525" type="line"/>
      <point x="543" y="0" type="line"/>
      <point x="529" y="0" type="line"/>
      <point x="364" y="422" type="line"/>
      <point x="379" y="422" type="line"/>
      <point x="214" y="0" type="line"/>
      <point x="200" y="0" type="line"/>
      <point x="15" y="525" type="line"/>
      <point x="39" y="525" type="line"/>
      <point x="215" y="24" type="line"/>
      <point x="200" y="24" type="line"/>
      <point x="364" y="444" type="line"/>
      <point x="379" y="444" type="line"/>
      <point x="543" y="24" type="line"/>
      <point x="528" y="24" type="line"/>
    </contour>
  </outline>
</glyph>
<glyph name="y" format="2">
  <advance width="501"/>
  <unicode hex="0079"/>
  <note>
y
</note>
  <anchor x="457" y="0" name="bottom"/>
  <anchor x="262" y="510" name="top"/>
  <outline>
    <contour>
      <point x="268" y="22" type="qcurve"/>
      <point x="257" y="-8" type="line"/>
      <point x="15" y="525" type="line"/>
      <point x="40" y="525" type="line"/>
      <point x="237" y="90" type="line" smooth="yes"/>
      <point x="241" y="82"/>
      <point x="263" y="32"/>
    </contour>
    <contour>
      <point x="182" y="-230" type="line"/>
      <point x="157" y="-230" type="line"/>
      <point x="237" y="-29" type="line"/>
      <point x="255" y="16" type="line"/>
      <point x="257" y="20"/>
      <point x="259" y="24"/>
      <point x="261" y="28" type="qcurve"/>
      <point x="461" y="525" type="line"/>
      <point x="486" y="525" type="line"/>
      <point x="269" y="-13" type="line"/>
    </contour>
  </outline>
</glyph>
<glyph name="braceleft" format="2">
  <advance width="402"/>
  <unicode hex="007B"/>
  <note>
braceleft
</note>
  <outline>
    <contour>
      <point x="349" y="-167" type="qcurve"/>
      <point x="343" y="-186" type="line"/>
      <point x="277" y="-171"/>
      <point x="201.0" y="-84"/>
      <point x="201" y="-7" type="qcurve"/>
      <point x="203" y="88" type="line"/>
      <point x="203" y="158"/>
      <point x="141" y="236"/>
      <point x="83" y="237" type="qcurve"/>
      <point x="63" y="237" type="line"/>
      <point x="63" y="263" type="line"/>
      <point x="83" y="263" type="line"/>
      <point x="142" y="264"/>
      <point x="203" y="341"/>
      <point x="203" y="412" type="qcurve"/>
      <point x="201" y="507" type="line"/>
      <point x="201.0" y="584.0"/>
      <point x="277" y="671"/>
      <point x="343" y="686" type="qcurve"/>
      <point x="349" y="667" type="line"/>
      <point x="280" y="649"/>
      <point x="223" y="571"/>
      <point x="223" y="493" type="qcurve"/>
      <point x="225" y="398" type="line"/>
      <point x="225" y="340"/>
      <point x="180" y="263"/>
      <point x="135" y="249" type="qcurve"/>
      <point x="135" y="252" type="line"/>
      <point x="181" y="235"/>
      <point x="225" y="159"/>
      <point x="225" y="102" type="qcurve"/>
      <point x="223" y="7" type="line"/>
      <point x="223" y="-71"/>
      <point x="280" y="-149"/>
    </contour>
  </outline>
</glyph>
<glyph name="sterling" format="2">
  <advance width="610"/>
  <unicode hex="00A3"/>
  <note>
sterling
</note>
  <outline>
    <contour>
      <point x="437" y="353" type="line"/>
      <point x="59" y="353" type="line"/>
      <point x="59" y="375" type="line"/>
      <point x="437" y="375" type="line"/>
    </contour>
    <contour>
      <point x="199" y="69" type="qcurve"/>
      <point x="223.2578125" y="69.0"/>
      <point x="280.4410922384543" y="55.80279459185748"/>
      <point x="334.0" y="39" type="qcurve" smooth="yes"/>
      <point x="383" y="24"/>
      <point x="429" y="17"/>
      <point x="447" y="17" type="qcurve"/>
      <point x="471.4175824175824" y="17.0"/>
      <point x="522" y="33"/>
      <point x="548.0" y="49" type="qcurve"/>
      <point x="561.500577831907" y="31.000121648822514" type="line"/>
      <point x="535.0004865952901" y="14.999878351177486"/>
      <point x="478" y="-5"/>
      <point x="447" y="-5" type="qcurve"/>
      <point x="428" y="-5"/>
      <point x="372" y="3"/>
      <point x="313.0" y="20.499665465738083" type="qcurve" smooth="yes"/>
      <point x="260" y="36"/>
      <point x="214" y="47.0"/>
      <point x="199" y="47" type="qcurve"/>
      <point x="171" y="47.0"/>
      <point x="106" y="28"/>
      <point x="73" y="13" type="qcurve"/>
      <point x="62" y="32" type="line"/>
      <point x="92.74541711828385" y="46.41191427419556"/>
      <point x="159.04166666666666" y="69.0"/>
    </contour>
    <contour>
      <point x="230" y="202.0" type="qcurve"/>
      <point x="230.0" y="160.84180790960454"/>
      <point x="204.96483313611685" y="86.6695770241254"/>
      <point x="168" y="47" type="qcurve"/>
      <point x="148" y="62" type="line"/>
      <point x="172" y="75"/>
      <point x="207.0" y="153.34289263733262"/>
      <point x="207" y="201.0" type="qcurve"/>
      <point x="207.0" y="229.0"/>
      <point x="193.12788273320484" y="291.6145270680477"/>
      <point x="172.99939175588742" y="352.0" type="qcurve" smooth="yes"/>
      <point x="153.49942216809305" y="413.9998783511775"/>
      <point x="144" y="475"/>
      <point x="144" y="502" type="qcurve"/>
      <point x="144" y="588.0"/>
      <point x="250" y="695"/>
      <point x="340.0" y="695" type="qcurve"/>
      <point x="400" y="695.0"/>
      <point x="480" y="652"/>
      <point x="509" y="611" type="qcurve"/>
      <point x="491" y="597" type="line"/>
      <point x="454" y="643"/>
      <point x="384" y="673.0"/>
      <point x="340.0" y="673" type="qcurve"/>
      <point x="264" y="673.0"/>
      <point x="167.0" y="576.0"/>
      <point x="167" y="501" type="qcurve"/>
      <point x="167.0" y="477.0"/>
      <point x="179.37064518907502" y="416.40030490986885"/>
      <point x="200.00091236616885" y="353.0" type="qcurve" smooth="yes"/>
      <point x="221.9030636063716" y="288.4462910815076"/>
      <point x="230.0" y="225.41085271317826"/>
    </contour>
  </outline>
</glyph>
<glyph name="yen" format="2">
  <advance width="632"/>
  <unicode hex="00A5"/>
  <note>
yen
</note>
  <anchor x="335" y="-1" name="bottom"/>
  <anchor x="331" y="700" name="top"/>
  <anchor x="60" y="700" name="topleft"/>
  <outline>
    <contour>
      <point x="494" y="149" type="line"/>
      <point x="156" y="149" type="line"/>
      <point x="156" y="171" type="line"/>
      <point x="494" y="171" type="line"/>
    </contour>
    <contour>
      <point x="494" y="299" type="line"/>
      <point x="156" y="299" type="line"/>
      <point x="156" y="321" type="line"/>
      <point x="494" y="321" type="line"/>
    </contour>
    <contour>
      <point x="570" y="700" type="line"/>
      <point x="597" y="700" type="line"/>
      <point x="327" y="300" type="line"/>
      <point x="336" y="339" type="line"/>
      <point x="336" y="0" type="line"/>
      <point x="314" y="0" type="line"/>
      <point x="314" y="339" type="line"/>
      <point x="322" y="300" type="line"/>
      <point x="45" y="700" type="line"/>
      <point x="72" y="700" type="line"/>
      <point x="330" y="327" type="line"/>
      <point x="319" y="327" type="line"/>
    </contour>
  </outline>
</glyph>
<glyph name="dieresis" format="2">
  <advance width="288"/>
  <unicode hex="00A8"/>
  <anchor x="160" y="522" name="_top"/>
  <outline>
    <contour>
      <point x="96" y="683" type="qcurve" smooth="yes"/>
      <point x="96.0" y="671.0"/>
      <point x="83" y="656.0"/>
      <point x="69" y="656" type="qcurve" smooth="yes"/>
      <point x="57" y="656.0"/>
      <point x="42.0" y="671.0"/>
      <point x="42" y="683" type="qcurve" smooth="yes"/>
      <point x="42.0" y="694.0"/>
      <point x="56" y="710.0"/>
      <point x="69" y="710" type="qcurve" smooth="yes"/>
      <point x="83" y="710.0"/>
      <point x="96.0" y="695.0"/>
    </contour>
    <contour>
      <point x="246" y="683" type="qcurve" smooth="yes"/>
      <point x="246.0" y="671.0"/>
      <point x="233" y="656.0"/>
      <point x="219" y="656" type="qcurve" smooth="yes"/>
      <point x="207" y="656.0"/>
      <point x="192.0" y="671.0"/>
      <point x="192" y="683" type="qcurve" smooth="yes"/>
      <point x="192.0" y="694"/>
      <point x="206.0" y="710.0"/>
      <point x="219" y="710" type="qcurve" smooth="yes"/>
      <point x="233" y="710.0"/>
      <point x="246.0" y="695.0"/>
    </contour>
  </outline>
</glyph>
<glyph name="ordfeminine" format="2">
  <advance width="365"/>
  <unicode hex="00AA"/>
  <note>
ordfeminine
</note>
  <outline>
    <contour>
      <point x="176" y="402" type="qcurve" smooth="yes"/>
      <point x="114.0" y="402.0"/>
      <point x="30.0" y="493.2603550295858"/>
      <point x="30" y="561" type="qcurve" smooth="yes"/>
      <point x="30.0" y="628.7647058823529"/>
      <point x="114.0" y="721.0"/>
      <point x="176" y="721" type="qcurve" smooth="yes"/>
      <point x="219.0" y="721.0"/>
      <point x="287.13396848332" y="677.5869305097632"/>
      <point x="299" y="641" type="qcurve"/>
      <point x="290" y="644" type="line"/>
      <point x="291" y="716" type="line"/>
      <point x="310" y="716" type="line"/>
      <point x="310" y="403" type="line"/>
      <point x="290" y="403" type="line"/>
      <point x="290" y="478" type="line"/>
      <point x="299" y="484" type="line"/>
      <point x="287.13139532553004" y="446.41608519751185"/>
      <point x="219.0" y="402.0"/>
    </contour>
    <contour>
      <point x="50" y="561" type="qcurve"/>
      <point x="50.0" y="502.2281879194631"/>
      <point x="121.0" y="422.0"/>
      <point x="175" y="422" type="qcurve"/>
      <point x="225.4310344827586" y="422.0"/>
      <point x="292.0" y="484"/>
      <point x="292" y="561" type="qcurve"/>
      <point x="292.0" y="639"/>
      <point x="224.42241379310346" y="701.0"/>
      <point x="175" y="701" type="qcurve"/>
      <point x="121.0" y="701.0"/>
      <point x="50.0" y="620.7333333333333"/>
    </contour>
  </outline>
</glyph>
<glyph name="macron" format="2">
  <advance width="424"/>
  <unicode hex="00AF"/>
  <outline>
    <contour>
      <point x="347" y="629" type="line"/>
      <point x="77" y="629" type="line"/>
      <point x="77" y="651" type="line"/>
      <point x="347" y="651" type="line"/>
    </contour>
  </outline>
</glyph>
<glyph name="degree" format="2">
  <advance width="532"/>
  <unicode hex="00B0"/>
  <note>
degree
</note>
  <outline>
    <contour>
      <point x="422.0" y="554.0" type="qcurve"/>
      <point x="422.0" y="489.0"/>
      <point x="332.0" y="399.0"/>
      <point x="266.0" y="399.0" type="qcurve"/>
      <point x="200.0" y="399.0"/>
      <point x="110.0" y="489.0"/>
      <point x="110.0" y="553.0" type="qcurve"/>
      <point x="110.0" y="619.0"/>
      <point x="199.0" y="709.0"/>
      <point x="266.0" y="709.0" type="qcurve"/>
      <point x="333.0" y="709.0"/>
      <point x="422.0" y="619.0"/>
    </contour>
    <contour>
      <point x="132" y="553.0" type="qcurve"/>
      <point x="132.0" y="499"/>
      <point x="211.0" y="421.0"/>
      <point x="266.0" y="421" type="qcurve"/>
      <point x="321" y="421.0"/>
      <point x="400.0" y="500.0"/>
      <point x="400" y="554.0" type="qcurve"/>
      <point x="400.0" y="608.0"/>
      <point x="320" y="687.0"/>
      <point x="266.0" y="687" type="qcurve"/>
      <point x="211" y="687.0"/>
      <point x="132.0" y="608.0"/>
    </contour>
  </outline>
</glyph>
<glyph name="acute" format="2">
  <advance width="269"/>
  <unicode hex="00B4"/>
  <outline>
    <contour>
      <point x="209" y="701" type="line"/>
      <point x="65" y="597" type="line"/>
      <point x="55" y="612" type="line"/>
      <point x="195" y="722" type="line"/>
    </contour>
  </outline>
</glyph>
<glyph name="cedilla" format="2">
  <advance width="267"/>
  <unicode hex="00B8"/>
  <outline>
    <contour>
      <point x="81" y="-81" type="line"/>
      <point x="63" y="-78" type="line"/>
      <point x="117" y="0" type="line"/>
      <point x="139" y="0" type="line"/>
    </contour>
    <contour>
      <point x="196" y="-139" type="qcurve"/>
      <point x="196.0" y="-157.0"/>
      <point x="178.0" y="-193.0"/>
      <point x="156" y="-202" type="qcurve" smooth="yes"/>
      <point x="134" y="-211"/>
      <point x="86" y="-221"/>
      <point x="50" y="-227" type="qcurve"/>
      <point x="46" y="-210" type="line"/>
      <point x="91.0" y="-203.0"/>
      <point x="176.0" y="-179.0"/>
      <point x="176" y="-138" type="qcurve"/>
      <point x="176.0" y="-116.0"/>
      <point x="134.0" y="-88.0"/>
      <point x="76" y="-88" type="qcurve"/>
      <point x="63" y="-80" type="line"/>
      <point x="63" y="-78" type="line"/>
      <point x="82" y="-71" type="line"/>
      <point x="144.99809589777507" y="-71.99996977615515"/>
      <point x="196.0" y="-108.0"/>
    </contour>
  </outline>
</glyph>
<glyph name="ordmasculine" format="2">
  <advance width="360"/>
  <unicode hex="00BA"/>
  <note>
ordmasculine
</note>
  <outline>
    <contour>
      <point x="180" y="731" type="qcurve" smooth="yes"/>
      <point x="240" y="731.0"/>
      <point x="320.0" y="633.0"/>
      <point x="320" y="561" type="qcurve" smooth="yes"/>
      <point x="320.0" y="489.0"/>
      <point x="240" y="392.0"/>
      <point x="180" y="392" type="qcurve" smooth="yes"/>
      <point x="121" y="392.0"/>
      <point x="40.0" y="489.0"/>
      <point x="40" y="561" type="qcurve" smooth="yes"/>
      <point x="40.0" y="633.0"/>
      <point x="121" y="731.0"/>
    </contour>
    <contour>
      <point x="179" y="412" type="qcurve"/>
      <point x="231" y="412.0"/>
      <point x="300.0" y="498.0"/>
      <point x="300" y="561" type="qcurve"/>
      <point x="300.0" y="625.0"/>
      <point x="230" y="711.0"/>
      <point x="179" y="711" type="qcurve"/>
      <point x="128" y="711.0"/>
      <point x="60.0" y="625.0"/>
      <point x="60" y="561" type="qcurve"/>
      <point x="60.0" y="498.0"/>
      <point x="128" y="412.0"/>
    </contour>
  </outline>
</glyph>
<glyph name="Oslash" format="2">
  <advance width="798"/>
  <unicode hex="00D8"/>
  <guideline x="399.0" y="0" angle="270.0" identifier="qhIjcmqDj5"/>
  <outline>
    <contour>
      <point x="114" y="-18" type="line"/>
      <point x="95" y="-4" type="line"/>
      <point x="684" y="718" type="line"/>
      <point x="703" y="704" type="line"/>
    </contour>
    <component base="O"/>
  </outline>
</glyph>
<glyph name="Thorn" format="2">
  <advance width="566"/>
  <unicode hex="00DE"/>
  <note>
Thorn
</note>
  <anchor x="295" y="0" name="bottom"/>
  <anchor x="295" y="700" name="top"/>
  <outline>
    <contour>
      <point x="110" y="700" type="line"/>
      <point x="132" y="700" type="line"/>
      <point x="132" y="0" type="line"/>
      <point x="110" y="0" type="line"/>
    </contour>
    <contour>
      <point x="122" y="171" type="line"/>
      <point x="122" y="193" type="line"/>
      <point x="327" y="193" type="line" smooth="yes"/>
      <point x="404" y="193"/>
      <point x="489" y="294"/>
      <point x="489" y="358" type="qcurve"/>
      <point x="489" y="430"/>
      <point x="407" y="521"/>
      <point x="327" y="521" type="qcurve"/>
      <point x="122" y="521" type="line"/>
      <point x="122" y="543" type="line"/>
      <point x="329" y="543" type="line"/>
      <point x="409" y="543"/>
      <point x="511" y="442"/>
      <point x="511" y="358" type="qcurve" smooth="yes"/>
      <point x="511" y="280"/>
      <point x="408" y="171"/>
      <point x="328" y="171" type="qcurve"/>
    </contour>
  </outline>
</glyph>
<glyph name="germandbls" format="2">
  <advance width="604"/>
  <unicode hex="00DF"/>
  <note>
germandbls
</note>
  <guideline x="244" y="432" angle="0" identifier="IUsIIIC23R"/>
  <guideline x="133" y="412" angle="0" identifier="yis5qxNfF7"/>
  <outline>
    <contour>
      <point x="138" y="416" type="line"/>
      <point x="40" y="416" type="line"/>
      <point x="40" y="438" type="line"/>
      <point x="138" y="438" type="line"/>
    </contour>
    <contour>
      <point x="148" y="0" type="line"/>
      <point x="126" y="0" type="line"/>
      <point x="126" y="494" type="line" smooth="yes"/>
      <point x="126" y="611.0"/>
      <point x="227.64999999999998" y="728.0"/>
      <point x="316" y="728" type="qcurve"/>
      <point x="399.1912568306011" y="728.0"/>
      <point x="489.0" y="640.0"/>
      <point x="489" y="577" type="qcurve"/>
      <point x="489.0" y="507.7639751552796"/>
      <point x="388.0" y="420.0"/>
      <point x="318" y="420" type="qcurve"/>
      <point x="318" y="432" type="line"/>
      <point x="457" y="388"/>
      <point x="562.0" y="258.0"/>
      <point x="562" y="186" type="qcurve"/>
      <point x="562.0" y="89.0"/>
      <point x="462.4921503061744" y="-8.984617007152842"/>
      <point x="364" y="-10" type="qcurve"/>
      <point x="303.0748624206167" y="-9.017336490655108"/>
      <point x="222.02072818510618" y="38.96372567606419"/>
      <point x="194" y="88" type="qcurve"/>
      <point x="214" y="100" type="line"/>
      <point x="242.95177620710976" y="50.08314447050044"/>
      <point x="317.24675324675326" y="12.0"/>
      <point x="364" y="12" type="qcurve" smooth="yes"/>
      <point x="444.37790697674416" y="12.0"/>
      <point x="539.0" y="91.0"/>
      <point x="539" y="188" type="qcurve"/>
      <point x="539.0" y="264.0"/>
      <point x="422.46216824831413" y="380.6778760745736"/>
      <point x="310" y="414" type="qcurve"/>
      <point x="310" y="437" type="line"/>
      <point x="381.003933652711" y="441.00022161423726"/>
      <point x="466.0" y="518.6666666666666"/>
      <point x="466" y="577" type="qcurve"/>
      <point x="466.0" y="631.0"/>
      <point x="387.4193548387097" y="706.0"/>
      <point x="321" y="706" type="qcurve"/>
      <point x="237.8087431693989" y="706.0"/>
      <point x="148.0" y="601.0"/>
      <point x="148" y="493" type="qcurve"/>
    </contour>
  </outline>
</glyph>
<glyph name="ae" format="2">
  <advance width="932"/>
  <unicode hex="00E6"/>
  <note>
ae
</note>
  <anchor x="417.0" y="0" name="bottom"/>
  <anchor x="459.0" y="515.0" name="top"/>
  <outline>
    <contour>
      <point x="272" y="530" type="qcurve"/>
      <point x="362" y="530"/>
      <point x="464" y="443"/>
      <point x="464" y="364" type="qcurve"/>
      <point x="464" y="276" type="line"/>
      <point x="442" y="276" type="line"/>
      <point x="442" y="367" type="line"/>
      <point x="442" y="431"/>
      <point x="353" y="508"/>
      <point x="271" y="508" type="qcurve"/>
      <point x="214" y="508"/>
      <point x="115" y="458"/>
      <point x="79" y="412" type="qcurve"/>
      <point x="63" y="428" type="line"/>
      <point x="104" y="478"/>
      <point x="209" y="530"/>
    </contour>
    <contour>
      <point x="464" y="263" type="qcurve" smooth="yes"/>
      <point x="465" y="153"/>
      <point x="596" y="12"/>
      <point x="699" y="12" type="qcurve"/>
      <point x="751" y="12"/>
      <point x="839" y="50"/>
      <point x="874" y="83" type="qcurve"/>
      <point x="886" y="65" type="line"/>
      <point x="849" y="31"/>
      <point x="756" y="-10"/>
      <point x="699" y="-10" type="qcurve"/>
      <point x="585" y="-10"/>
      <point x="442" y="144"/>
      <point x="442" y="263" type="qcurve"/>
      <point x="442" y="373"/>
      <point x="579" y="529"/>
      <point x="687" y="529" type="qcurve"/>
      <point x="786" y="529"/>
      <point x="912" y="401"/>
      <point x="912" y="291" type="qcurve"/>
      <point x="910" y="265" type="line"/>
      <point x="240" y="265" type="line" smooth="yes"/>
      <point x="155.0" y="265.0"/>
      <point x="62" y="205"/>
      <point x="62" y="149" type="qcurve"/>
      <point x="62" y="88"/>
      <point x="155" y="12"/>
      <point x="219" y="12" type="qcurve"/>
      <point x="297" y="12"/>
      <point x="425" y="96"/>
      <point x="459" y="165" type="qcurve"/>
      <point x="472" y="146" type="line"/>
      <point x="436" y="76"/>
      <point x="302" y="-10"/>
      <point x="218" y="-10" type="qcurve"/>
      <point x="142" y="-10"/>
      <point x="40" y="77"/>
      <point x="40" y="149" type="qcurve"/>
      <point x="40" y="215"/>
      <point x="144" y="287"/>
      <point x="246" y="287" type="qcurve"/>
      <point x="900" y="287" type="line"/>
      <point x="890" y="272" type="line"/>
      <point x="890" y="295" type="line"/>
      <point x="890" y="390"/>
      <point x="773" y="507"/>
      <point x="690" y="507" type="qcurve"/>
      <point x="588" y="507"/>
      <point x="465" y="370"/>
    </contour>
  </outline>
</glyph>
<glyph name="thorn" format="2">
  <advance width="615"/>
  <unicode hex="00FE"/>
  <note>
thorn
</note>
  <anchor x="284" y="0" name="bottom"/>
  <anchor x="284" y="499" name="top"/>
  <outline>
    <contour>
      <point x="324" y="530" type="qcurve"/>
      <point x="427" y="530"/>
      <point x="575" y="377"/>
      <point x="575" y="259" type="qcurve"/>
      <point x="575" y="142"/>
      <point x="431" y="-10"/>
      <point x="323" y="-10" type="qcurve"/>
      <point x="236" y="-10"/>
      <point x="110" y="86"/>
      <point x="87" y="164" type="qcurve"/>
      <point x="95" y="164" type="line"/>
      <point x="95" y="-230" type="line"/>
      <point x="73" y="-230" type="line"/>
      <point x="73" y="740" type="line"/>
      <point x="95" y="740" type="line"/>
      <point x="95" y="352" type="line"/>
      <point x="87" y="353" type="line"/>
      <point x="111" y="431"/>
      <point x="237" y="530"/>
    </contour>
    <contour>
      <point x="553" y="259" type="qcurve"/>
      <point x="553" y="367"/>
      <point x="420" y="508"/>
      <point x="319" y="508" type="qcurve"/>
      <point x="221" y="508"/>
      <point x="92" y="368"/>
      <point x="92" y="260" type="qcurve"/>
      <point x="92" y="150"/>
      <point x="222" y="12"/>
      <point x="319" y="12" type="qcurve"/>
      <point x="422" y="12"/>
      <point x="553" y="152"/>
    </contour>
  </outline>
</glyph>
<glyph name="eogonek" format="2">
  <advance width="545"/>
  <unicode hex="0119"/>
  <note>
eogonek
</note>
  <outline>
    <contour>
      <point x="356" y="6" type="qcurve"/>
      <point x="353" y="-9" type="line"/>
      <point x="341" y="-9"/>
      <point x="303" y="-10"/>
      <point x="297" y="-10" type="qcurve"/>
      <point x="183" y="-10"/>
      <point x="40" y="144"/>
      <point x="40" y="263" type="qcurve"/>
      <point x="40" y="380"/>
      <point x="177" y="530"/>
      <point x="285" y="530" type="qcurve"/>
      <point x="384" y="530"/>
      <point x="510" y="401"/>
      <point x="510" y="291" type="qcurve"/>
      <point x="509" y="265" type="line"/>
      <point x="53" y="265" type="line"/>
      <point x="53" y="287" type="line"/>
      <point x="497" y="287" type="line"/>
      <point x="489" y="284" type="line"/>
      <point x="489" y="296" type="line"/>
      <point x="485" y="392"/>
      <point x="372" y="508"/>
      <point x="288" y="508" type="qcurve"/>
      <point x="184" y="508"/>
      <point x="62" y="365"/>
      <point x="62" y="274" type="qcurve"/>
      <point x="62" y="158"/>
      <point x="190" y="12"/>
      <point x="297" y="12" type="qcurve"/>
      <point x="349" y="12"/>
      <point x="437" y="50"/>
      <point x="472" y="83" type="qcurve"/>
      <point x="484" y="65" type="line"/>
      <point x="465" y="48"/>
      <point x="424" y="21"/>
      <point x="400" y="10" type="qcurve" smooth="yes"/>
      <point x="354" y="-11"/>
      <point x="268" y="-78"/>
      <point x="268" y="-130" type="qcurve" smooth="yes"/>
      <point x="268" y="-163"/>
      <point x="310" y="-208"/>
      <point x="341" y="-208" type="qcurve" smooth="yes"/>
      <point x="365" y="-208"/>
      <point x="400" y="-183"/>
      <point x="411" y="-163" type="qcurve"/>
      <point x="426" y="-176" type="line"/>
      <point x="414" y="-200"/>
      <point x="369" y="-230"/>
      <point x="341" y="-230" type="qcurve" smooth="yes"/>
      <point x="299" y="-230"/>
      <point x="246" y="-173"/>
      <point x="246" y="-130" type="qcurve" smooth="yes"/>
      <point x="246" y="-90"/>
      <point x="295" y="-27"/>
    </contour>
  </outline>
</glyph>
<glyph name="Hbar" format="2">
  <advance width="731"/>
  <unicode hex="0126"/>
  <outline>
    <contour>
      <point x="110" y="541" type="line"/>
      <point x="24" y="541" type="line"/>
      <point x="24" y="562" type="line"/>
      <point x="110" y="562" type="line"/>
      <point x="127" y="562" type="line"/>
      <point x="606" y="562" type="line"/>
      <point x="621" y="562" type="line"/>
      <point x="706" y="562" type="line"/>
      <point x="706" y="541" type="line"/>
      <point x="621" y="541" type="line"/>
      <point x="606" y="541" type="line"/>
      <point x="127" y="541" type="line"/>
    </contour>
    <component base="H"/>
  </outline>
</glyph>
<glyph name="iogonek" format="2">
  <advance width="159"/>
  <unicode hex="012F"/>
  <outline>
    <contour>
      <point x="92" y="0" type="line"/>
      <point x="52" y="-27"/>
      <point x="-1.0" y="-97.0"/>
      <point x="-1" y="-130" type="qcurve" smooth="yes"/>
      <point x="-1" y="-163"/>
      <point x="41" y="-208"/>
      <point x="72" y="-208" type="qcurve" smooth="yes"/>
      <point x="96" y="-208"/>
      <point x="131" y="-183"/>
      <point x="142" y="-163" type="qcurve"/>
      <point x="157" y="-176" type="line"/>
      <point x="145" y="-200"/>
      <point x="100" y="-230"/>
      <point x="72" y="-230" type="qcurve" smooth="yes"/>
      <point x="30" y="-230"/>
      <point x="-23" y="-173"/>
      <point x="-23" y="-130" type="qcurve" smooth="yes"/>
      <point x="-23.0" y="-90.0"/>
      <point x="44" y="-9"/>
      <point x="85" y="18" type="qcurve"/>
      <point x="92" y="8" type="line"/>
    </contour>
    <component base="i"/>
  </outline>
</glyph>
<glyph name="kgreenlandic" format="2">
  <advance width="483"/>
  <unicode hex="0138"/>
  <anchor x="295" y="0" name="bottom"/>
  <anchor x="295" y="510" name="top"/>
  <outline>
    <contour>
      <point x="99" y="0" type="line"/>
      <point x="77" y="0" type="line"/>
      <point x="77" y="525" type="line"/>
      <point x="99" y="525" type="line"/>
    </contour>
    <contour>
      <point x="408" y="525" type="line"/>
      <point x="440" y="525" type="line"/>
      <point x="205" y="292" type="line"/>
      <point x="91" y="179" type="line"/>
      <point x="91" y="211" type="line"/>
    </contour>
    <contour>
      <point x="474" y="0" type="line"/>
      <point x="443" y="0" type="line"/>
      <point x="190" y="291" type="line"/>
      <point x="207" y="307" type="line"/>
    </contour>
  </outline>
</glyph>
<glyph name="eng" format="2">
  <advance width="541"/>
  <unicode hex="014B"/>
  <note>
eng
</note>
  <anchor x="286" y="0" name="bottom"/>
  <anchor x="295" y="510" name="top"/>
  <outline>
    <contour>
      <point x="288" y="530" type="qcurve"/>
      <point x="376" y="530"/>
      <point x="473" y="434"/>
      <point x="473" y="328" type="qcurve"/>
      <point x="473" y="-60" type="line" smooth="yes"/>
      <point x="473" y="-125"/>
      <point x="407" y="-194"/>
      <point x="347" y="-194" type="qcurve"/>
      <point x="339" y="-173" type="line"/>
      <point x="401" y="-173"/>
      <point x="451" y="-108"/>
      <point x="451" y="-56" type="qcurve"/>
      <point x="451" y="328" type="line"/>
      <point x="451" y="423"/>
      <point x="365" y="508"/>
      <point x="286" y="508" type="qcurve"/>
      <point x="201" y="508"/>
      <point x="92" y="407"/>
      <point x="92" y="376" type="qcurve"/>
      <point x="92" y="0" type="line"/>
      <point x="70" y="0" type="line"/>
      <point x="70" y="525" type="line"/>
      <point x="90" y="525" type="line"/>
      <point x="92" y="420" type="line"/>
      <point x="129" y="478"/>
      <point x="229" y="530"/>
    </contour>
  </outline>
</glyph>
<glyph name="Uogonek" format="2">
  <advance width="744"/>
  <unicode hex="0172"/>
  <outline>
    <contour>
      <point x="378" y="-4" type="qcurve" smooth="yes"/>
      <point x="246" y="-4"/>
      <point x="111" y="154"/>
      <point x="110" y="269" type="qcurve"/>
      <point x="110" y="700" type="line"/>
      <point x="132" y="700" type="line"/>
      <point x="132" y="278" type="line"/>
      <point x="132.0" y="163.0"/>
      <point x="263" y="16"/>
      <point x="368" y="16" type="qcurve"/>
      <point x="476" y="16"/>
      <point x="612" y="163"/>
      <point x="612" y="278" type="qcurve"/>
      <point x="612" y="700" type="line"/>
      <point x="634" y="700" type="line"/>
      <point x="634" y="269" type="line"/>
      <point x="634.0" y="165.0"/>
      <point x="520" y="19"/>
      <point x="423" y="0" type="qcurve" smooth="yes"/>
      <point x="371" y="-11"/>
      <point x="291" y="-77"/>
      <point x="291" y="-130" type="qcurve" smooth="yes"/>
      <point x="291" y="-163"/>
      <point x="336" y="-208"/>
      <point x="369" y="-208" type="qcurve" smooth="yes"/>
      <point x="395" y="-208"/>
      <point x="433" y="-183"/>
      <point x="444" y="-163" type="qcurve"/>
      <point x="459" y="-176" type="line"/>
      <point x="447" y="-200"/>
      <point x="399" y="-230"/>
      <point x="369" y="-230" type="qcurve" smooth="yes"/>
      <point x="327" y="-230"/>
      <point x="269" y="-172"/>
      <point x="269" y="-130" type="qcurve" smooth="yes"/>
      <point x="269" y="-89"/>
      <point x="319" y="-23"/>
      <point x="381" y="8" type="qcurve"/>
      <point x="391" y="2" type="line"/>
      <point x="389" y="-1.0"/>
      <point x="382.33333333333337" y="-4.0"/>
    </contour>
  </outline>
</glyph>
<glyph name="Nhookleft" format="2">
  <advance width="730"/>
  <unicode hex="019D"/>
  <outline>
    <contour>
      <point x="132" y="-60" type="line" smooth="yes"/>
      <point x="132" y="-125"/>
      <point x="66" y="-194"/>
      <point x="6" y="-194" type="qcurve"/>
      <point x="-2" y="-173" type="line"/>
      <point x="60" y="-173"/>
      <point x="110" y="-108"/>
      <point x="110" y="-56" type="qcurve"/>
      <point x="110" y="700" type="line"/>
      <point x="132" y="700" type="line"/>
      <point x="605" y="31" type="line"/>
      <point x="601" y="31" type="line"/>
      <point x="601" y="75"/>
      <point x="599" y="177"/>
      <point x="598" y="241" type="qcurve"/>
      <point x="598" y="700" type="line"/>
      <point x="620" y="700" type="line"/>
      <point x="620" y="0" type="line"/>
      <point x="600" y="0" type="line"/>
      <point x="115" y="686" type="line"/>
      <point x="130" y="686" type="line"/>
      <point x="131" y="661"/>
      <point x="133" y="525"/>
      <point x="132" y="470" type="qcurve" smooth="yes"/>
    </contour>
  </outline>
</glyph>
<glyph name="nhookleft" format="2">
  <advance width="541"/>
  <unicode hex="0272"/>
  <outline>
    <contour>
      <point x="288" y="530" type="qcurve"/>
      <point x="376" y="530"/>
      <point x="473" y="434"/>
      <point x="473" y="328" type="qcurve"/>
      <point x="473" y="0" type="line"/>
      <point x="451" y="0" type="line"/>
      <point x="451" y="328" type="line"/>
      <point x="451" y="423"/>
      <point x="365" y="508"/>
      <point x="286" y="508" type="qcurve"/>
      <point x="201" y="508"/>
      <point x="92" y="407"/>
      <point x="92" y="376" type="qcurve"/>
      <point x="92" y="0" type="line"/>
      <point x="84" y="0"/>
      <point x="77" y="0"/>
      <point x="70" y="0" type="qcurve"/>
      <point x="70" y="525" type="line"/>
      <point x="90" y="525" type="line"/>
      <point x="92" y="404" type="line"/>
      <point x="83" y="401" type="line"/>
      <point x="99" y="453"/>
      <point x="215" y="530"/>
    </contour>
    <contour>
      <point x="70" y="5" type="line"/>
      <point x="92" y="10" type="line"/>
      <point x="92" y="-60" type="line" smooth="yes"/>
      <point x="92" y="-125"/>
      <point x="26" y="-194"/>
      <point x="-34" y="-194" type="qcurve"/>
      <point x="-42" y="-173" type="line"/>
      <point x="20" y="-173"/>
      <point x="70" y="-108"/>
      <point x="70" y="-56" type="qcurve"/>
    </contour>
  </outline>
</glyph>
<glyph name="firsttonechinese" format="2">
  <advance width="424"/>
  <unicode hex="02C9"/>
  <outline>
    <contour>
      <point x="347" y="629" type="line"/>
      <point x="77" y="629" type="line"/>
      <point x="77" y="651" type="line"/>
      <point x="347" y="651" type="line"/>
    </contour>
  </outline>
</glyph>
<glyph name="dotaccent" format="2">
  <advance width="232"/>
  <unicode hex="02D9"/>
  <outline>
    <contour>
      <point x="144" y="684" type="qcurve" smooth="yes"/>
      <point x="144" y="671"/>
      <point x="130" y="655"/>
      <point x="116" y="655" type="qcurve" smooth="yes"/>
      <point x="102" y="655"/>
      <point x="88" y="671"/>
      <point x="88" y="684" type="qcurve" smooth="yes"/>
      <point x="88" y="696"/>
      <point x="102" y="713"/>
      <point x="116" y="713" type="qcurve" smooth="yes"/>
      <point x="129" y="713"/>
      <point x="144" y="697"/>
    </contour>
  </outline>
</glyph>
<glyph name="ogonek" format="2">
  <advance width="295"/>
  <unicode hex="02DB"/>
  <outline>
    <contour>
      <point x="151" y="-230" type="qcurve" smooth="yes"/>
      <point x="109.0" y="-230.0"/>
      <point x="56.0" y="-173.0"/>
      <point x="56" y="-130" type="qcurve" smooth="yes"/>
      <point x="56" y="-70"/>
      <point x="148.84921766539534" y="8.31342672294836"/>
      <point x="206" y="18" type="qcurve"/>
      <point x="211" y="8" type="line"/>
      <point x="211" y="0" type="line"/>
      <point x="155.0396776844515" y="-9.648331433715256"/>
      <point x="78.0" y="-77.0"/>
      <point x="78" y="-130" type="qcurve" smooth="yes"/>
      <point x="78.0" y="-163.0"/>
      <point x="120" y="-208.0"/>
      <point x="151" y="-208" type="qcurve" smooth="yes"/>
      <point x="175" y="-208.0"/>
      <point x="210" y="-183"/>
      <point x="221" y="-163" type="qcurve"/>
      <point x="236" y="-176" type="line"/>
      <point x="224" y="-200"/>
      <point x="179" y="-230"/>
    </contour>
  </outline>
</glyph>
<glyph name="tilde" format="2">
  <advance width="332"/>
  <unicode hex="02DC"/>
  <outline>
    <contour>
      <point x="60" y="647" type="qcurve"/>
      <point x="40" y="650" type="line"/>
      <point x="40.0" y="680.0"/>
      <point x="78" y="722.0"/>
      <point x="102" y="722" type="qcurve"/>
      <point x="123.0" y="722.0"/>
      <point x="160.8480077957015" y="699.1097721475489"/>
      <point x="179" y="686" type="qcurve" smooth="yes"/>
      <point x="185.9144359976723" y="681.0611171445198"/>
      <point x="218.25925925925927" y="661.0"/>
      <point x="232" y="661" type="qcurve"/>
      <point x="247.3846153846154" y="661.0"/>
      <point x="270.99997117715594" y="685.9991353146787"/>
      <point x="272" y="716" type="qcurve"/>
      <point x="292" y="713" type="line"/>
      <point x="292.0" y="680.0"/>
      <point x="255.125" y="641.0"/>
      <point x="233" y="641" type="qcurve"/>
      <point x="209.88888888888889" y="641.0"/>
      <point x="171.86377072632655" y="665.0961618402401"/>
      <point x="155" y="677" type="qcurve" smooth="yes"/>
      <point x="147.20919296007912" y="681.8692543999505"/>
      <point x="117.7037037037037" y="702.0"/>
      <point x="102" y="702" type="qcurve"/>
      <point x="86.63414634146342" y="702.0"/>
      <point x="60.0" y="673.0"/>
    </contour>
  </outline>
</glyph>
<glyph name="dotaccentcomb" format="2">
  <unicode hex="0307"/>
  <anchor x="116" y="511" name="_top"/>
  <anchor x="116" y="751" name="top"/>
  <outline>
    <contour>
      <point x="144" y="684" type="qcurve" smooth="yes"/>
      <point x="144" y="671"/>
      <point x="130" y="655"/>
      <point x="116" y="655" type="qcurve" smooth="yes"/>
      <point x="102" y="655"/>
      <point x="88" y="671"/>
      <point x="88" y="684" type="qcurve" smooth="yes"/>
      <point x="88" y="696"/>
      <point x="102" y="713"/>
      <point x="116" y="713" type="qcurve" smooth="yes"/>
      <point x="129" y="713"/>
      <point x="144" y="697"/>
    </contour>
  </outline>
</glyph>
<glyph name="hungarumlautcomb" format="2">
  <advance width="412"/>
  <unicode hex="030B"/>
  <anchor x="172" y="512" name="_top"/>
  <anchor x="172" y="740" name="top"/>
  <outline>
    <contour>
      <point x="211" y="677" type="line"/>
      <point x="67" y="573" type="line"/>
      <point x="57" y="588" type="line"/>
      <point x="197" y="698" type="line"/>
    </contour>
    <contour>
      <point x="331" y="677" type="line"/>
      <point x="187" y="573" type="line"/>
      <point x="177" y="588" type="line"/>
      <point x="317" y="698" type="line"/>
    </contour>
  </outline>
</glyph>
<glyph name="horncomb" format="2">
  <unicode hex="031B"/>
  <anchor x="0" y="510" name="_topright"/>
  <anchor x="0" y="510" name="topright"/>
  <outline>
    <contour>
      <point x="-37" y="504" type="qcurve"/>
      <point x="-37" y="525" type="line"/>
      <point x="12" y="525"/>
      <point x="59" y="574"/>
      <point x="59" y="624" type="qcurve"/>
      <point x="81" y="624" type="line"/>
      <point x="81.0" y="568.5378151260504"/>
      <point x="19.0" y="504.0"/>
    </contour>
  </outline>
</glyph>
<glyph name="dotbelowcomb" format="2">
  <unicode hex="0323"/>
  <anchor x="105" y="-3" name="_bottom"/>
  <anchor x="105" y="-223" name="bottom"/>
  <outline>
    <contour>
      <point x="135" y="-105" type="qcurve" smooth="yes"/>
      <point x="135" y="-118"/>
      <point x="121" y="-134"/>
      <point x="107" y="-134" type="qcurve" smooth="yes"/>
      <point x="93" y="-134"/>
      <point x="79" y="-118"/>
      <point x="79" y="-105" type="qcurve" smooth="yes"/>
      <point x="79" y="-93"/>
      <point x="93" y="-76"/>
      <point x="107" y="-76" type="qcurve" smooth="yes"/>
      <point x="120" y="-76"/>
      <point x="135" y="-92"/>
    </contour>
  </outline>
</glyph>
<glyph name="dieresisbelowcomb" format="2">
  <unicode hex="0324"/>
  <anchor x="198" y="0" name="_bottom"/>
  <anchor x="198" y="-150" name="bottom"/>
  <outline>
    <contour>
      <point x="285.0001216488225" y="-150.0" type="qcurve"/>
      <point x="264.0" y="-150.0"/>
      <point x="244.99987835117747" y="-132.4999087633831"/>
      <point x="244.99987835117747" y="-114.4997871145606" type="qcurve"/>
      <point x="244.99987835117747" y="-103.99969587794371" type="line" smooth="yes"/>
      <point x="244.99987835117747" y="-85.49960464132683"/>
      <point x="265.0" y="-68.49948299250431"/>
      <point x="286.0001216488225" y="-68.49948299250431" type="qcurve"/>
      <point x="306.50027370985066" y="-68.49948299250431"/>
      <point x="326.5003953586732" y="-84.49960464132683"/>
      <point x="326.5003953586732" y="-103.99969587794371" type="qcurve"/>
      <point x="326.5003953586732" y="-114.4997871145606" type="line" smooth="yes"/>
      <point x="326.5003953586732" y="-133.4999087633831"/>
      <point x="307.50027370985066" y="-150.0"/>
    </contour>
    <contour>
      <point x="103.49996958779437" y="-150.0" type="qcurve"/>
      <point x="82.49984793897185" y="-150.0"/>
      <point x="63.49972629014934" y="-132.4999087633831"/>
      <point x="63.49972629014934" y="-114.4997871145606" type="qcurve"/>
      <point x="63.49972629014934" y="-103.99969587794371" type="line" smooth="yes"/>
      <point x="63.49972629014934" y="-85.49960464132683"/>
      <point x="83.49984793897185" y="-68.49948299250431"/>
      <point x="103.49996958779437" y="-68.49948299250431" type="qcurve"/>
      <point x="125.00012164882251" y="-68.49948299250431"/>
      <point x="145.00024329764503" y="-84.9995742291212"/>
      <point x="145.00024329764503" y="-103.99969587794371" type="qcurve"/>
      <point x="145.00024329764503" y="-114.4997871145606" type="line" smooth="yes"/>
      <point x="145.00024329764503" y="-133.4999087633831"/>
      <point x="126.00012164882251" y="-150.0"/>
    </contour>
  </outline>
</glyph>
<glyph name="commaaccentcomb" format="2">
  <unicode hex="0326"/>
  <outline>
    <contour>
      <point x="87" y="-152" type="qcurve"/>
      <point x="74" y="-139" type="line"/>
      <point x="96" y="-120"/>
      <point x="108" y="-101"/>
      <point x="108" y="-92" type="qcurve"/>
      <point x="108" y="-84"/>
      <point x="102" y="-74"/>
      <point x="91" y="-69" type="qcurve" smooth="yes"/>
      <point x="81" y="-64"/>
      <point x="71" y="-50"/>
      <point x="71" y="-40" type="qcurve"/>
      <point x="71" y="-31"/>
      <point x="85" y="-16"/>
      <point x="98" y="-16" type="qcurve"/>
      <point x="115.0" y="-16.0"/>
      <point x="134.0" y="-41"/>
      <point x="134" y="-62" type="qcurve"/>
      <point x="134" y="-88"/>
      <point x="116" y="-129"/>
    </contour>
  </outline>
</glyph>
<glyph name="pi" format="2">
  <advance width="614"/>
  <unicode hex="03C0"/>
  <note>
pi
</note>
  <outline>
    <contour>
      <point x="136" y="0.0" type="line"/>
      <point x="114.0" y="0.0" type="line"/>
      <point x="114.0" y="502" type="line"/>
      <point x="123.0" y="495" type="line"/>
      <point x="40.0" y="495" type="line"/>
      <point x="40.0" y="517" type="line"/>
      <point x="574.0" y="517" type="line"/>
      <point x="574.0" y="495" type="line"/>
      <point x="493" y="495" type="line"/>
      <point x="500.0" y="502" type="line"/>
      <point x="500.0" y="0.0" type="line"/>
      <point x="478" y="0.0" type="line"/>
      <point x="478" y="502" type="line"/>
      <point x="484" y="495" type="line"/>
      <point x="127" y="495" type="line"/>
      <point x="136" y="502" type="line"/>
    </contour>
  </outline>
</glyph>
<glyph name="alef-ar" format="2">
  <advance width="264"/>
  <unicode hex="0627"/>
  <anchor x="132.0" y="0" name="bottom"/>
  <anchor x="132.0" y="700.0" name="top"/>
  <outline>
    <contour>
      <point x="80.0" y="0.0" type="line"/>
      <point x="80.0" y="740.0" type="line"/>
      <point x="184.0" y="740.0" type="line"/>
      <point x="184.0" y="0.0" type="line"/>
    </contour>
  </outline>
</glyph>
<glyph name="dal-ar" format="2">
  <advance width="494"/>
  <unicode hex="062F"/>
  <anchor x="427.0" y="0" name="#entry"/>
  <anchor x="242.0" y="0" name="bottom"/>
  <anchor x="253.0" y="487.0" name="top"/>
  <outline>
    <contour>
      <point x="427.0" y="0.0" type="qcurve"/>
      <point x="59.0" y="0.0" type="line"/>
      <point x="40.0" y="102.0" type="line"/>
      <point x="339.0" y="102.0" type="line"/>
      <point x="322.0" y="193.0"/>
      <point x="246.0" y="324.0"/>
      <point x="175.0" y="388.0" type="qcurve"/>
      <point x="253.0" y="487.0" type="line"/>
      <point x="369.0" y="363.0"/>
      <point x="447.0" y="142.0"/>
    </contour>
  </outline>
</glyph>
<glyph name="reh-ar" format="2">
  <advance width="442"/>
  <unicode hex="0631"/>
  <anchor x="103.0" y="-230.0" name="bottom"/>
  <anchor x="196.0" y="378.0" name="top"/>
  <outline>
    <contour>
      <point x="288.0" y="81.0" type="qcurve" smooth="yes"/>
      <point x="288.0" y="126.0"/>
      <point x="228.0" y="237.0"/>
      <point x="161.0" y="320.0" type="qcurve"/>
      <point x="235.0" y="413.0" type="line"/>
      <point x="319.0" y="300.0"/>
      <point x="382.0" y="155.0"/>
      <point x="382.0" y="81.0" type="qcurve" smooth="yes"/>
      <point x="382.0" y="22.0"/>
      <point x="343.0" y="-92.0"/>
      <point x="308.0" y="-135.0" type="qcurve" smooth="yes"/>
      <point x="270.0" y="-182.0"/>
      <point x="166.0" y="-230.0"/>
      <point x="103.0" y="-230.0" type="qcurve" smooth="yes"/>
      <point x="50.0" y="-230.0"/>
      <point x="-60.0" y="-186.0"/>
      <point x="-101.0" y="-148.0" type="qcurve"/>
      <point x="-111.0" y="-221.0" type="line"/>
      <point x="-21.0" y="-51.0" type="line"/>
      <point x="-71.0" y="-83.0" type="line"/>
      <point x="-31.0" y="-103.0"/>
      <point x="57.0" y="-128.0"/>
      <point x="87.0" y="-128.0" type="qcurve" smooth="yes"/>
      <point x="176.0" y="-128.0"/>
      <point x="288.0" y="-11.0"/>
    </contour>
  </outline>
</glyph>
<glyph name="sad-ar" format="2">
  <advance width="1432"/>
  <unicode hex="0635"/>
  <anchor x="1345.0" y="0" name="#entry"/>
  <anchor x="1000.0" y="0" name="bottom"/>
  <anchor x="1100.0" y="438.0" name="top"/>
  <outline>
    <contour>
      <point x="1345.0" y="0.0" type="qcurve"/>
      <point x="743.0" y="0.0" type="line"/>
      <point x="743.0" y="102.0" type="line"/>
      <point x="1262.0" y="102.0" type="line"/>
      <point x="1264.0" y="220.0"/>
      <point x="1193.0" y="334.0"/>
      <point x="1118.0" y="334.0" type="qcurve" smooth="yes"/>
      <point x="1034.0" y="334.0"/>
      <point x="859.0" y="169.0"/>
      <point x="777.0" y="12.0" type="qcurve"/>
      <point x="707.0" y="94.0" type="line"/>
      <point x="813.0" y="268.0"/>
      <point x="1021.0" y="438.0"/>
      <point x="1130.0" y="438.0" type="qcurve" smooth="yes"/>
      <point x="1270.0" y="438.0"/>
      <point x="1388.0" y="193.0"/>
    </contour>
    <component base="noonghunna-ar.fina"/>
  </outline>
</glyph>
<glyph name="kashida-ar" format="2">
  <advance width="80"/>
  <unicode hex="0640"/>
  <anchor x="40.0" y="0" name="bottom"/>
  <anchor x="40.0" y="438.0" name="top"/>
  <outline>
    <contour>
      <point x="0.0" y="0.0" type="line"/>
      <point x="0.0" y="102.0" type="line"/>
      <point x="80.0" y="102.0" type="line"/>
      <point x="80.0" y="0.0" type="line"/>
    </contour>
  </outline>
</glyph>
<glyph name="lam-ar" format="2">
  <advance width="710"/>
  <unicode hex="0644"/>
  <outline>
    <contour>
      <point x="630.0" y="740.0" type="line"/>
      <point x="630.0" y="74.0" type="line" smooth="yes"/>
      <point x="630.0" y="-69.0"/>
      <point x="465.0" y="-230.0"/>
      <point x="321.0" y="-230.0" type="qcurve" smooth="yes"/>
      <point x="183.0" y="-230.0"/>
      <point x="30.0" y="-94.0"/>
      <point x="30.0" y="23.0" type="qcurve" smooth="yes"/>
      <point x="30.0" y="66.0"/>
      <point x="61.0" y="187.0"/>
      <point x="89.0" y="250.0" type="qcurve"/>
      <point x="33.0" y="228.0" type="line"/>
      <point x="210.0" y="169.0" type="line"/>
      <point x="177.0" y="223.0" type="line"/>
      <point x="155.0" y="171.0"/>
      <point x="131.0" y="75.0"/>
      <point x="131.0" y="38.0" type="qcurve" smooth="yes"/>
      <point x="131.0" y="-42.0"/>
      <point x="237.0" y="-128.0"/>
      <point x="334.0" y="-128.0" type="qcurve" smooth="yes"/>
      <point x="423.0" y="-128.0"/>
      <point x="535.0" y="-33.0"/>
      <point x="535.0" y="47.0" type="qcurve"/>
      <point x="535.0" y="740.0" type="line"/>
    </contour>
  </outline>
</glyph>
<glyph name="fatha-ar" format="2">
  <unicode hex="064E"/>
  <outline>
    <contour>
      <point x="20.0" y="681.0" type="line"/>
      <point x="273.0" y="747.0" type="line"/>
      <point x="287.0" y="693.0" type="line"/>
      <point x="34.0" y="627.0" type="line"/>
    </contour>
  </outline>
</glyph>
<glyph name="kasra-ar" format="2">
  <unicode hex="0650"/>
  <anchor x="154.0" y="0" name="_bottom"/>
  <anchor x="180.0" y="-106.0" name="bottom"/>
  <outline>
    <contour>
      <point x="20.0" y="-154.0" type="line"/>
      <point x="273.0" y="-88.0" type="line"/>
      <point x="287.0" y="-142.0" type="line"/>
      <point x="34.0" y="-208.0" type="line"/>
    </contour>
  </outline>
</glyph>
<glyph name="sukun-ar" format="2">
  <unicode hex="0652"/>
  <anchor x="121.0" y="525.0" name="_top"/>
  <anchor x="121.0" y="765.0" name="top"/>
  <outline>
    <contour>
      <point x="221.0" y="735.0" type="qcurve" smooth="yes"/>
      <point x="221.0" y="694.0"/>
      <point x="162.0" y="635.0"/>
      <point x="121.0" y="635.0" type="qcurve" smooth="yes"/>
      <point x="80.0" y="635.0"/>
      <point x="20.0" y="694.0"/>
      <point x="20.0" y="735.0" type="qcurve" smooth="yes"/>
      <point x="20.0" y="776.0"/>
      <point x="80.0" y="835.0"/>
      <point x="121.0" y="835.0" type="qcurve" smooth="yes"/>
      <point x="162.0" y="835.0"/>
      <point x="221.0" y="776.0"/>
    </contour>
    <contour>
      <point x="70.0" y="735.0" type="qcurve" smooth="yes"/>
      <point x="70.0" y="715.0"/>
      <point x="100.0" y="685.0"/>
      <point x="121.0" y="685.0" type="qcurve" smooth="yes"/>
      <point x="141.0" y="685.0"/>
      <point x="171.0" y="715.0"/>
      <point x="171.0" y="735.0" type="qcurve" smooth="yes"/>
      <point x="171.0" y="755.0"/>
      <point x="141.0" y="785.0"/>
      <point x="121.0" y="785.0" type="qcurve" smooth="yes"/>
      <point x="100.0" y="785.0"/>
      <point x="70.0" y="755.0"/>
    </contour>
  </outline>
</glyph>
<glyph name="madda-ar" format="2">
  <unicode hex="0653"/>
  <outline>
    <contour>
      <point x="421.0" y="749.0" type="qcurve"/>
      <point x="445.0" y="687.0" type="line"/>
      <point x="425.0" y="665.0"/>
      <point x="369.0" y="644.0"/>
      <point x="333.0" y="644.0" type="qcurve" smooth="yes"/>
      <point x="309.0" y="644.0"/>
      <point x="263.0" y="655.0"/>
      <point x="224.0" y="673.0" type="qcurve" smooth="yes"/>
      <point x="193.0" y="688.0"/>
      <point x="161.0" y="696.0"/>
      <point x="147.0" y="696.0" type="qcurve" smooth="yes"/>
      <point x="123.0" y="696.0"/>
      <point x="83.0" y="678.0"/>
      <point x="63.0" y="658.0" type="qcurve"/>
      <point x="25.0" y="710.0" type="line"/>
      <point x="57.0" y="746.0"/>
      <point x="112.0" y="776.0"/>
      <point x="150.0" y="776.0" type="qcurve" smooth="yes"/>
      <point x="167.0" y="776.0"/>
      <point x="203.0" y="767.0"/>
      <point x="238.0" y="751.0" type="qcurve" smooth="yes"/>
      <point x="275.0" y="735.0"/>
      <point x="318.0" y="724.0"/>
      <point x="340.0" y="724.0" type="qcurve" smooth="yes"/>
      <point x="360.0" y="724.0"/>
      <point x="400.0" y="736.0"/>
    </contour>
  </outline>
</glyph>
<glyph name="hamzabelow-ar" format="2">
  <unicode hex="0655"/>
  <anchor x="118.0" y="0" name="_bottom"/>
  <anchor x="118.0" y="-200.0" name="bottom"/>
  <outline>
    <contour>
      <point x="164.0" y="-193.0" type="qcurve"/>
      <point x="215.0" y="-193.0" type="line"/>
      <point x="215.0" y="-250.0" type="line"/>
      <point x="20.0" y="-250.0" type="line"/>
      <point x="20.0" y="-193.0" type="line"/>
      <point x="53.0" y="-193.0" type="line"/>
      <point x="46.0" y="-183.0"/>
      <point x="39.0" y="-161.0"/>
      <point x="39.0" y="-149.0" type="qcurve" smooth="yes"/>
      <point x="39.0" y="-110.0"/>
      <point x="93.0" y="-60.0"/>
      <point x="136.0" y="-60.0" type="qcurve" smooth="yes"/>
      <point x="154.0" y="-60.0"/>
      <point x="188.0" y="-68.0"/>
      <point x="203.0" y="-76.0" type="qcurve"/>
      <point x="180.0" y="-126.0" type="line"/>
      <point x="171.0" y="-121.0"/>
      <point x="151.0" y="-117.0"/>
      <point x="140.0" y="-117.0" type="qcurve" smooth="yes"/>
      <point x="120.0" y="-117.0"/>
      <point x="97.0" y="-136.0"/>
      <point x="97.0" y="-152.0" type="qcurve" smooth="yes"/>
      <point x="97.0" y="-171.0"/>
      <point x="132.0" y="-193.0"/>
    </contour>
  </outline>
</glyph>
<glyph name="alefbelow-ar" format="2">
  <unicode hex="0656"/>
  <anchor x="48.0" y="0" name="_bottom"/>
  <anchor x="48.0" y="-257.0" name="bottom"/>
  <outline>
    <contour>
      <point x="20.0" y="-257.0" type="line"/>
      <point x="20.0" y="-74.0" type="line"/>
      <point x="76.0" y="-74.0" type="line"/>
      <point x="76.0" y="-257.0" type="line"/>
    </contour>
  </outline>
</glyph>
<glyph name="one-ar" format="2">
  <advance width="304"/>
  <unicode hex="0661"/>
  <outline>
    <contour>
      <point x="204.0" y="661.0" type="line"/>
      <point x="204.0" y="0.0" type="line"/>
      <point x="100.0" y="0.0" type="line"/>
      <point x="100.0" y="661.0" type="line"/>
    </contour>
  </outline>
</glyph>
<glyph name="two-ar" format="2">
  <advance width="463"/>
  <unicode hex="0662"/>
  <outline>
    <contour>
      <point x="184.0" y="412.0" type="qcurve"/>
      <point x="184.0" y="0.0" type="line"/>
      <point x="80.0" y="0.0" type="line"/>
      <point x="80.0" y="412.0" type="line" smooth="yes"/>
      <point x="80.0" y="533.0"/>
      <point x="197.0" y="661.0"/>
      <point x="307.0" y="661.0" type="qcurve"/>
      <point x="443.0" y="661.0" type="line"/>
      <point x="443.0" y="559.0" type="line"/>
      <point x="307.0" y="559.0" type="line" smooth="yes"/>
      <point x="241.0" y="559.0"/>
      <point x="184.0" y="491.0"/>
    </contour>
  </outline>
</glyph>
<glyph name="four-ar" format="2">
  <advance width="528"/>
  <unicode hex="0664"/>
  <outline>
    <contour>
      <point x="322.0" y="661.0" type="qcurve"/>
      <point x="420.0" y="661.0" type="line"/>
      <point x="420.0" y="559.0" type="line"/>
      <point x="322.0" y="559.0" type="line" smooth="yes"/>
      <point x="265.0" y="559.0"/>
      <point x="195.0" y="505.0"/>
      <point x="195.0" y="461.0" type="qcurve" smooth="yes"/>
      <point x="195.0" y="427.0"/>
      <point x="243.0" y="369.0"/>
      <point x="279.0" y="359.0" type="qcurve"/>
      <point x="247.0" y="291.0" type="line"/>
      <point x="183.0" y="293.0"/>
      <point x="91.0" y="393.0"/>
      <point x="91.0" y="461.0" type="qcurve" smooth="yes"/>
      <point x="91.0" y="548.0"/>
      <point x="221.0" y="661.0"/>
    </contour>
    <contour>
      <point x="312.0" y="387.0" type="qcurve"/>
      <point x="399.0" y="396.0" type="line"/>
      <point x="409.0" y="294.0" type="line"/>
      <point x="322.0" y="286.0" type="line" smooth="yes"/>
      <point x="252.0" y="280.0"/>
      <point x="179.0" y="227.0"/>
      <point x="179.0" y="182.0" type="qcurve" smooth="yes"/>
      <point x="179.0" y="137.0"/>
      <point x="244.0" y="95.0"/>
      <point x="314.0" y="95.0" type="qcurve" smooth="yes"/>
      <point x="355.0" y="95.0"/>
      <point x="417.0" y="104.0"/>
      <point x="457.0" y="116.0" type="qcurve"/>
      <point x="483.0" y="22.0" type="line"/>
      <point x="446.0" y="7.0"/>
      <point x="365.0" y="-7.0"/>
      <point x="314.0" y="-7.0" type="qcurve" smooth="yes"/>
      <point x="202.0" y="-7.0"/>
      <point x="75.0" y="92.0"/>
      <point x="75.0" y="180.0" type="qcurve" smooth="yes"/>
      <point x="75.0" y="266.0"/>
      <point x="202.0" y="376.0"/>
    </contour>
  </outline>
</glyph>
<glyph name="seven-ar" format="2">
  <advance width="557"/>
  <unicode hex="0667"/>
  <outline>
    <contour>
      <point x="217.0" y="0.0" type="line"/>
      <point x="30.0" y="661.0" type="line"/>
      <point x="145.0" y="661.0" type="line"/>
      <point x="307.0" y="4.0" type="line"/>
      <point x="247.0" y="4.0" type="line"/>
      <point x="409.0" y="661.0" type="line"/>
      <point x="527.0" y="661.0" type="line"/>
      <point x="337.0" y="0.0" type="line"/>
    </contour>
  </outline>
</glyph>
<glyph name="nine-ar" format="2">
  <advance width="553"/>
  <unicode hex="0669"/>
  <outline>
    <contour>
      <point x="463.0" y="435.0" type="qcurve"/>
      <point x="463.0" y="0.0" type="line"/>
      <point x="359.0" y="0.0" type="line"/>
      <point x="359.0" y="435.0" type="line" smooth="yes"/>
      <point x="359.0" y="498.0"/>
      <point x="303.0" y="569.0"/>
      <point x="254.0" y="569.0" type="qcurve" smooth="yes"/>
      <point x="211.0" y="569.0"/>
      <point x="154.0" y="503.0"/>
      <point x="154.0" y="451.0" type="qcurve" smooth="yes"/>
      <point x="154.0" y="405.0"/>
      <point x="216.0" y="347.0"/>
      <point x="267.0" y="347.0" type="qcurve" smooth="yes"/>
      <point x="301.0" y="347.0"/>
      <point x="353.0" y="363.0"/>
      <point x="381.0" y="381.0" type="qcurve"/>
      <point x="437.0" y="295.0" type="line"/>
      <point x="399.0" y="270.0"/>
      <point x="314.0" y="245.0"/>
      <point x="267.0" y="245.0" type="qcurve" smooth="yes"/>
      <point x="169.0" y="245.0"/>
      <point x="50.0" y="358.0"/>
      <point x="50.0" y="451.0" type="qcurve" smooth="yes"/>
      <point x="50.0" y="545.0"/>
      <point x="167.0" y="671.0"/>
      <point x="254.0" y="671.0" type="qcurve" smooth="yes"/>
      <point x="350.0" y="671.0"/>
      <point x="463.0" y="542.0"/>
    </contour>
  </outline>
</glyph>
<glyph name="noonghunna-ar" format="2">
  <advance width="700"/>
  <unicode hex="06BA"/>
  <anchor x="321.0" y="-230.0" name="bottom"/>
  <anchor x="321.0" y="253.0" name="top"/>
  <outline>
    <contour>
      <point x="131.0" y="38.0" type="qcurve" smooth="yes"/>
      <point x="131.0" y="-42.0"/>
      <point x="237.0" y="-128.0"/>
      <point x="334.0" y="-128.0" type="qcurve" smooth="yes"/>
      <point x="419.0" y="-128.0"/>
      <point x="535.0" y="-43.0"/>
      <point x="535.0" y="23.0" type="qcurve" smooth="yes"/>
      <point x="535.0" y="66.0"/>
      <point x="502.0" y="176.0"/>
      <point x="468.0" y="246.0" type="qcurve"/>
      <point x="548.0" y="342.0" type="line"/>
      <point x="589.0" y="266.0"/>
      <point x="630.0" y="119.0"/>
      <point x="630.0" y="50.0" type="qcurve" smooth="yes"/>
      <point x="630.0" y="-78.0"/>
      <point x="462.0" y="-230.0"/>
      <point x="321.0" y="-230.0" type="qcurve" smooth="yes"/>
      <point x="183.0" y="-230.0"/>
      <point x="30.0" y="-94.0"/>
      <point x="30.0" y="23.0" type="qcurve" smooth="yes"/>
      <point x="30.0" y="66.0"/>
      <point x="61.0" y="187.0"/>
      <point x="89.0" y="250.0" type="qcurve"/>
      <point x="33.0" y="228.0" type="line"/>
      <point x="210.0" y="169.0" type="line"/>
      <point x="177.0" y="223.0" type="line"/>
      <point x="155.0" y="171.0"/>
      <point x="131.0" y="75.0"/>
    </contour>
  </outline>
</glyph>
<glyph name="Germandbls" format="2">
  <advance width="725"/>
  <unicode hex="1E9E"/>
  <outline>
    <contour>
      <point x="602" y="609.0" type="line"/>
      <point x="502" y="596"/>
      <point x="390.0" y="532"/>
      <point x="390" y="486.0" type="qcurve"/>
      <point x="390.0" y="453.0"/>
      <point x="438" y="408"/>
      <point x="489" y="384.0" type="qcurve" smooth="yes"/>
      <point x="512" y="373"/>
      <point x="561" y="349"/>
      <point x="577" y="340" type="qcurve" smooth="yes"/>
      <point x="632" y="309"/>
      <point x="663.0" y="230"/>
      <point x="663" y="188" type="qcurve"/>
      <point x="663.0" y="90.0"/>
      <point x="539.0" y="-10.0"/>
      <point x="436" y="-10.0" type="qcurve" smooth="yes"/>
      <point x="378.0" y="-10.0"/>
      <point x="272.0" y="38.0"/>
      <point x="241" y="78.0" type="qcurve"/>
      <point x="258" y="93.0" type="line"/>
      <point x="294.0" y="52.0"/>
      <point x="388.0" y="12.0"/>
      <point x="437" y="12.0" type="qcurve"/>
      <point x="530.0" y="12.0"/>
      <point x="640.0" y="103.0"/>
      <point x="640" y="183.0" type="qcurve"/>
      <point x="640.0" y="235"/>
      <point x="599" y="305"/>
      <point x="557" y="326" type="qcurve" smooth="yes"/>
      <point x="533" y="338"/>
      <point x="480" y="364"/>
      <point x="450" y="378" type="qcurve" smooth="yes"/>
      <point x="405.0" y="400.0"/>
      <point x="368.0" y="450.0"/>
      <point x="368" y="485" type="qcurve"/>
      <point x="368.0" y="544.0"/>
      <point x="490.99985120875766" y="612.9999812053167"/>
      <point x="586" y="625" type="qcurve"/>
      <point x="586" y="620" type="line"/>
      <point x="552.9161837011902" y="645.5218011447961"/>
      <point x="451.00000000000006" y="688.0"/>
      <point x="381" y="688" type="qcurve"/>
      <point x="246.34351145038167" y="688.0"/>
      <point x="129.0" y="553"/>
      <point x="129" y="391" type="qcurve"/>
      <point x="129" y="0" type="line"/>
      <point x="106" y="0" type="line"/>
      <point x="106" y="402" type="line"/>
      <point x="106.0" y="557"/>
      <point x="232.41958041958043" y="710.0"/>
      <point x="382" y="710" type="qcurve"/>
      <point x="455.0" y="710.0"/>
      <point x="561.86736831168" y="667.3660527272799"/>
      <point x="600" y="634" type="qcurve"/>
    </contour>
  </outline>
</glyph>
<glyph name="endash" format="2">
  <advance width="514"/>
  <unicode hex="2013"/>
  <note>
endash
</note>
  <outline>
    <contour>
      <point x="461.0" y="283" type="line"/>
      <point x="53.0" y="283" type="line"/>
      <point x="53.0" y="305" type="line"/>
      <point x="461.0" y="305" type="line"/>
    </contour>
  </outline>
</glyph>
<glyph name="bullet" format="2">
  <advance width="347"/>
  <unicode hex="2022"/>
  <note>
bullet
</note>
  <outline>
    <contour>
      <point x="245" y="344" type="qcurve" smooth="yes"/>
      <point x="245" y="315"/>
      <point x="202" y="274"/>
      <point x="172" y="274" type="qcurve" smooth="yes"/>
      <point x="145" y="274"/>
      <point x="102" y="315"/>
      <point x="102" y="344" type="qcurve" smooth="yes"/>
      <point x="102" y="373"/>
      <point x="144" y="415"/>
      <point x="172" y="415" type="qcurve" smooth="yes"/>
      <point x="202" y="415"/>
      <point x="245" y="373"/>
    </contour>
  </outline>
</glyph>
<glyph name="perthousand" format="2">
  <advance width="1199"/>
  <unicode hex="2030"/>
  <note>
perthousand
</note>
  <guideline x="754" y="-9" angle="0" identifier="NZ0Ids09ll"/>
  <outline>
    <contour>
      <point x="1149" y="175" type="qcurve"/>
      <point x="1149" y="96"/>
      <point x="1064" y="-9"/>
      <point x="998" y="-9" type="qcurve"/>
      <point x="931" y="-9"/>
      <point x="845" y="96"/>
      <point x="845" y="175" type="qcurve"/>
      <point x="845" y="256"/>
      <point x="930" y="360"/>
      <point x="998" y="360" type="qcurve"/>
      <point x="1065" y="360"/>
      <point x="1149" y="256"/>
    </contour>
    <contour>
      <point x="868" y="175" type="qcurve"/>
      <point x="868" y="102"/>
      <point x="940" y="13"/>
      <point x="998" y="13" type="qcurve"/>
      <point x="1055" y="13"/>
      <point x="1126" y="104"/>
      <point x="1126" y="175" type="qcurve"/>
      <point x="1126" y="248"/>
      <point x="1057" y="338"/>
      <point x="998" y="338" type="qcurve"/>
      <point x="939" y="338"/>
      <point x="868" y="249"/>
    </contour>
    <contour>
      <point x="350" y="518" type="qcurve"/>
      <point x="350" y="438"/>
      <point x="262" y="329"/>
      <point x="196" y="329" type="qcurve"/>
      <point x="128" y="329"/>
      <point x="43" y="436"/>
      <point x="43" y="518" type="qcurve"/>
      <point x="43" y="601"/>
      <point x="128" y="709"/>
      <point x="196" y="709" type="qcurve"/>
      <point x="263" y="709"/>
      <point x="350" y="601"/>
    </contour>
    <contour>
      <point x="65" y="518" type="qcurve"/>
      <point x="65" y="443"/>
      <point x="139" y="350"/>
      <point x="196" y="350" type="qcurve"/>
      <point x="252" y="350"/>
      <point x="328" y="443"/>
      <point x="328" y="518" type="qcurve"/>
      <point x="328" y="594"/>
      <point x="254" y="688"/>
      <point x="196" y="688" type="qcurve"/>
      <point x="139" y="688"/>
      <point x="65" y="593"/>
    </contour>
    <contour>
      <point x="794" y="180" type="qcurve"/>
      <point x="794" y="100"/>
      <point x="706" y="-9"/>
      <point x="640" y="-9" type="qcurve"/>
      <point x="572" y="-9"/>
      <point x="487" y="98"/>
      <point x="487" y="180" type="qcurve"/>
      <point x="487" y="263"/>
      <point x="572" y="371"/>
      <point x="640" y="371" type="qcurve"/>
      <point x="707" y="371"/>
      <point x="794" y="263"/>
    </contour>
    <contour>
      <point x="509" y="180" type="qcurve"/>
      <point x="509" y="105"/>
      <point x="583" y="12"/>
      <point x="640" y="12" type="qcurve"/>
      <point x="696" y="12"/>
      <point x="772" y="105"/>
      <point x="772" y="180" type="qcurve"/>
      <point x="772" y="256"/>
      <point x="698" y="350"/>
      <point x="640" y="350" type="qcurve"/>
      <point x="583" y="350"/>
      <point x="509" y="255"/>
    </contour>
    <contour>
      <point x="202" y="0" type="line"/>
      <point x="175" y="0" type="line"/>
      <point x="423" y="379" type="line"/>
      <point x="640" y="700" type="line"/>
      <point x="667" y="700" type="line"/>
      <point x="420" y="333" type="line"/>
    </contour>
  </outline>
</glyph>
<glyph name="colonsign" format="2">
  <advance width="637"/>
  <unicode hex="20A1"/>
  <anchor x="377.0" y="0" name="bottom"/>
  <anchor x="372.0" y="700.0" name="top"/>
  <outline>
    <contour>
      <point x="103" y="-35" type="line"/>
      <point x="77" y="-35" type="line"/>
      <point x="471" y="760" type="line"/>
      <point x="497" y="760" type="line"/>
    </contour>
    <contour>
      <point x="238" y="-35" type="line"/>
      <point x="212" y="-35" type="line"/>
      <point x="606" y="760" type="line"/>
      <point x="632" y="760" type="line"/>
    </contour>
    <contour>
      <point x="624" y="99" type="qcurve"/>
      <point x="639" y="81" type="line"/>
      <point x="594" y="38"/>
      <point x="471" y="-10"/>
      <point x="399" y="-10" type="qcurve"/>
      <point x="248" y="-10"/>
      <point x="55" y="189"/>
      <point x="55" y="346" type="qcurve"/>
      <point x="55" y="505"/>
      <point x="248" y="710"/>
      <point x="399" y="710" type="qcurve"/>
      <point x="478" y="710"/>
      <point x="608" y="647"/>
      <point x="655" y="594" type="qcurve"/>
      <point x="637" y="578" type="line"/>
      <point x="593" y="628"/>
      <point x="472" y="688"/>
      <point x="399" y="688" type="qcurve" smooth="yes"/>
      <point x="260" y="688"/>
      <point x="78" y="494"/>
      <point x="78" y="346" type="qcurve"/>
      <point x="78" y="200"/>
      <point x="260" y="12"/>
      <point x="399" y="12" type="qcurve" smooth="yes"/>
      <point x="467" y="12"/>
      <point x="582" y="58"/>
    </contour>
  </outline>
</glyph>
<glyph name="naira" format="2">
  <advance width="790"/>
  <unicode hex="20A6"/>
  <anchor x="423" y="0" name="bottom"/>
  <anchor x="423" y="700.0" name="top"/>
  <outline>
    <contour>
      <point x="140" y="337" type="line"/>
      <point x="40" y="337" type="line"/>
      <point x="40" y="359" type="line"/>
      <point x="140" y="359" type="line"/>
      <point x="162" y="359" type="line"/>
      <point x="632" y="359" type="line"/>
      <point x="650" y="359" type="line"/>
      <point x="750" y="359" type="line"/>
      <point x="750" y="337" type="line"/>
      <point x="650" y="337" type="line"/>
      <point x="632" y="337" type="line"/>
      <point x="162" y="337" type="line"/>
    </contour>
    <contour>
      <point x="628" y="241" type="qcurve"/>
      <point x="628" y="700" type="line"/>
      <point x="650" y="700" type="line"/>
      <point x="650" y="0" type="line"/>
      <point x="630" y="0" type="line"/>
      <point x="145" y="686" type="line"/>
      <point x="160" y="686" type="line"/>
      <point x="161" y="661"/>
      <point x="163" y="525"/>
      <point x="162" y="470" type="qcurve" smooth="yes"/>
      <point x="162" y="0" type="line"/>
      <point x="140" y="0" type="line"/>
      <point x="140" y="700" type="line"/>
      <point x="162" y="700" type="line"/>
      <point x="635" y="31" type="line"/>
      <point x="631" y="31" type="line"/>
      <point x="631" y="75"/>
      <point x="629" y="177"/>
    </contour>
  </outline>
</glyph>
<glyph name="peseta" format="2">
  <advance width="791"/>
  <unicode hex="20A7"/>
  <anchor x="401" y="0" name="bottom"/>
  <anchor x="401" y="700" name="top"/>
  <outline>
    <contour>
      <point x="728" y="496" type="line"/>
      <point x="93" y="496" type="line"/>
      <point x="93" y="518" type="line"/>
      <point x="728" y="518" type="line"/>
    </contour>
    <contour>
      <point x="193" y="700" type="line"/>
      <point x="444" y="700" type="line" smooth="yes"/>
      <point x="527" y="700"/>
      <point x="628" y="593"/>
      <point x="628" y="507" type="qcurve" smooth="yes"/>
      <point x="628" y="411"/>
      <point x="527" y="291"/>
      <point x="444" y="291" type="qcurve"/>
      <point x="201" y="291" type="line"/>
      <point x="215" y="300" type="line"/>
      <point x="215" y="0" type="line"/>
      <point x="193" y="0" type="line"/>
    </contour>
    <contour>
      <point x="200" y="313" type="line"/>
      <point x="450" y="313" type="line" smooth="yes"/>
      <point x="520" y="313"/>
      <point x="605" y="421"/>
      <point x="605" y="507" type="qcurve" smooth="yes"/>
      <point x="605" y="582"/>
      <point x="520" y="678"/>
      <point x="450" y="678" type="qcurve"/>
      <point x="202" y="678" type="line"/>
      <point x="215" y="690" type="line"/>
      <point x="215" y="305" type="line"/>
    </contour>
  </outline>
</glyph>
<glyph name="euro" format="2">
  <advance width="646"/>
  <unicode hex="20AC"/>
  <note>
Euro
</note>
  <guideline x="584" y="478" angle="270" identifier="p3xWooLXE6"/>
  <guideline x="599" y="224" angle="270" identifier="vqSGsukpsZ"/>
  <outline>
    <contour>
      <point x="467" y="259" type="line"/>
      <point x="15" y="259" type="line"/>
      <point x="15" y="281" type="line"/>
      <point x="467" y="281" type="line"/>
    </contour>
    <contour>
      <point x="467" y="400" type="line"/>
      <point x="15" y="400" type="line"/>
      <point x="15" y="422" type="line"/>
      <point x="467" y="422" type="line"/>
    </contour>
    <contour>
      <point x="439" y="-10" type="qcurve"/>
      <point x="288" y="-10"/>
      <point x="95" y="189"/>
      <point x="95" y="346" type="qcurve"/>
      <point x="95" y="505"/>
      <point x="288" y="710"/>
      <point x="439" y="710" type="qcurve"/>
      <point x="484" y="710"/>
      <point x="565" y="689"/>
      <point x="600" y="670" type="qcurve"/>
      <point x="585" y="652" type="line"/>
      <point x="553" y="669"/>
      <point x="479" y="688"/>
      <point x="439" y="688" type="qcurve" smooth="yes"/>
      <point x="300" y="688"/>
      <point x="118" y="494"/>
      <point x="118" y="346" type="qcurve"/>
      <point x="118" y="200"/>
      <point x="300" y="12"/>
      <point x="439" y="12" type="qcurve" smooth="yes"/>
      <point x="479" y="12"/>
      <point x="552" y="28"/>
      <point x="584" y="43" type="qcurve"/>
      <point x="599" y="25" type="line"/>
      <point x="564" y="8"/>
      <point x="483" y="-10"/>
    </contour>
  </outline>
</glyph>
<glyph name="kip" format="2">
  <advance width="759"/>
  <unicode hex="20AD"/>
  <guideline x="26" y="406" angle="0" identifier="HVKer5awi3"/>
  <outline>
    <contour>
      <point x="332" y="400" type="line"/>
      <point x="332" y="422" type="line"/>
      <point x="599" y="422" type="line"/>
      <point x="599" y="400" type="line"/>
    </contour>
    <contour>
      <point x="150" y="422" type="line"/>
      <point x="150" y="400" type="line"/>
      <point x="50" y="400" type="line"/>
      <point x="50" y="422" type="line"/>
    </contour>
    <component base="K" xOffset="30"/>
  </outline>
</glyph>
<glyph name="peso" format="2">
  <advance width="775"/>
  <unicode hex="20B1"/>
  <outline>
    <contour>
      <point x="193.0" y="417.0" type="line"/>
      <point x="93.0" y="417.0" type="line"/>
      <point x="93.0" y="438" type="line"/>
      <point x="193.0" y="438" type="line"/>
      <point x="215.0" y="438" type="line"/>
      <point x="600" y="438" type="line"/>
      <point x="623" y="438" type="line"/>
      <point x="720.0" y="438" type="line"/>
      <point x="720.0" y="417.0" type="line"/>
      <point x="617" y="417.0" type="line"/>
      <point x="594" y="417.0" type="line"/>
      <point x="215.0" y="417.0" type="line"/>
    </contour>
    <contour>
      <point x="193.0" y="548.0" type="line"/>
      <point x="93.0" y="548.0" type="line"/>
      <point x="93.0" y="569" type="line"/>
      <point x="193.0" y="569" type="line"/>
      <point x="215.0" y="569" type="line"/>
      <point x="600" y="569" type="line"/>
      <point x="620" y="569" type="line"/>
      <point x="720.0" y="569" type="line"/>
      <point x="720.0" y="548.0" type="line"/>
      <point x="617" y="548.0" type="line"/>
      <point x="594" y="548.0" type="line"/>
      <point x="215.0" y="548.0" type="line"/>
    </contour>
    <component base="P" xOffset="83"/>
  </outline>
</glyph>
<glyph name="guarani" format="2">
  <advance width="766"/>
  <unicode hex="20B2"/>
  <outline>
    <contour>
      <point x="405" y="797.0" type="line"/>
      <point x="405" y="-136.0" type="line"/>
      <point x="383" y="-136.0" type="line"/>
      <point x="383" y="797.0" type="line"/>
    </contour>
    <component base="G" xOffset="-4"/>
  </outline>
</glyph>
<glyph name="cedi" format="2">
  <advance width="690"/>
  <unicode hex="20B5"/>
  <outline>
    <contour>
      <point x="400" y="-10" type="line"/>
      <point x="400" y="-85" type="line"/>
      <point x="379" y="-85" type="line"/>
      <point x="379" y="12" type="line"/>
      <point x="379" y="-10" type="line"/>
      <point x="379" y="687" type="line"/>
      <point x="379" y="710" type="line"/>
      <point x="379" y="785" type="line"/>
      <point x="400" y="785" type="line"/>
      <point x="400" y="710" type="line"/>
      <point x="400" y="687" type="line"/>
      <point x="400" y="12" type="line"/>
    </contour>
    <component base="C"/>
  </outline>
</glyph>
<glyph name="rupeeIndian" format="2">
  <advance width="571"/>
  <unicode hex="20B9"/>
  <outline>
    <contour>
      <point x="288" y="678" type="line"/>
      <point x="282" y="692" type="line"/>
      <point x="353" y="669"/>
      <point x="409.0" y="566.0"/>
      <point x="409" y="507" type="qcurve"/>
      <point x="409" y="421"/>
      <point x="308" y="314"/>
      <point x="225" y="314" type="qcurve" smooth="yes"/>
      <point x="152" y="314" type="line"/>
      <point x="123" y="314" type="line"/>
      <point x="105" y="336" type="line"/>
      <point x="231" y="336" type="line"/>
      <point x="301" y="336"/>
      <point x="386" y="432"/>
      <point x="386" y="507" type="qcurve"/>
      <point x="386" y="582"/>
      <point x="301" y="678"/>
      <point x="231" y="678" type="qcurve"/>
      <point x="80" y="678" type="line"/>
      <point x="80" y="700" type="line"/>
      <point x="509" y="700" type="line"/>
      <point x="509" y="678" type="line"/>
    </contour>
    <contour>
      <point x="105" y="336" type="line"/>
      <point x="131" y="336" type="line"/>
      <point x="395" y="0" type="line"/>
      <point x="369" y="0" type="line"/>
    </contour>
    <contour>
      <point x="509" y="496" type="line"/>
      <point x="241" y="496" type="line"/>
      <point x="241" y="518" type="line"/>
      <point x="509" y="518" type="line"/>
    </contour>
  </outline>
</glyph>
<glyph name="liraTurkish" format="2">
  <advance width="609"/>
  <unicode hex="20BA"/>
  <outline>
    <contour>
      <point x="210" y="0.0" type="qcurve"/>
      <point x="204.0" y="0.0"/>
      <point x="198" y="2"/>
      <point x="195" y="5.0" type="qcurve"/>
      <point x="195" y="700.0" type="line"/>
      <point x="217" y="700.0" type="line"/>
      <point x="217" y="8" type="line"/>
      <point x="208" y="23" type="line"/>
      <point x="330" y="23"/>
      <point x="497" y="107"/>
      <point x="525" y="208" type="qcurve"/>
      <point x="545" y="203.0" type="line"/>
      <point x="522.0464978491905" y="100.20822949854917"/>
      <point x="351" y="0.0"/>
    </contour>
    <contour>
      <point x="86" y="365" type="line"/>
      <point x="78" y="386" type="line"/>
      <point x="418" y="577" type="line"/>
      <point x="431" y="557" type="line"/>
    </contour>
    <contour>
      <point x="86" y="188" type="line"/>
      <point x="78" y="209" type="line"/>
      <point x="418" y="400" type="line"/>
      <point x="431" y="380" type="line"/>
    </contour>
  </outline>
</glyph>
<glyph name="ruble" format="2">
  <advance width="719"/>
  <unicode hex="20BD"/>
  <outline>
    <contour>
      <point x="198" y="313" type="line"/>
      <point x="198" y="291" type="line"/>
      <point x="98.0" y="291" type="line"/>
      <point x="98.0" y="313" type="line"/>
    </contour>
    <contour>
      <point x="358.0" y="151" type="line"/>
      <point x="98.0" y="151" type="line"/>
      <point x="98.0" y="173" type="line"/>
      <point x="358.0" y="173" type="line"/>
    </contour>
    <component base="P" xOffset="88"/>
  </outline>
</glyph>
<glyph name="numero" format="2">
  <advance width="1174"/>
  <unicode hex="2116"/>
  <guideline x="796" y="267" angle="270" identifier="ShgtwfPJTg"/>
  <guideline x="1125" y="309" angle="270" identifier="U2Sl3Fkjie"/>
  <anchor x="393" y="0" name="bottom"/>
  <anchor x="393" y="700" name="top"/>
  <outline>
    <contour>
      <point x="1083" y="226" type="line"/>
      <point x="754" y="226" type="line"/>
      <point x="754" y="248" type="line"/>
      <point x="1083" y="248" type="line"/>
    </contour>
    <contour>
      <point x="918" y="710" type="qcurve" smooth="yes"/>
      <point x="992" y="710"/>
      <point x="1094" y="608"/>
      <point x="1094" y="534" type="qcurve" smooth="yes"/>
      <point x="1094" y="460"/>
      <point x="992" y="358"/>
      <point x="918" y="358" type="qcurve" smooth="yes"/>
      <point x="845" y="358"/>
      <point x="743" y="460"/>
      <point x="743" y="534" type="qcurve" smooth="yes"/>
      <point x="743" y="608"/>
      <point x="845" y="710"/>
    </contour>
    <contour>
      <point x="918" y="380" type="qcurve" smooth="yes"/>
      <point x="983" y="380"/>
      <point x="1072" y="469"/>
      <point x="1072" y="534" type="qcurve" smooth="yes"/>
      <point x="1072" y="598"/>
      <point x="983" y="688"/>
      <point x="918" y="688" type="qcurve" smooth="yes"/>
      <point x="854" y="688"/>
      <point x="765" y="598"/>
      <point x="765" y="534" type="qcurve" smooth="yes"/>
      <point x="765" y="469"/>
      <point x="854" y="380"/>
    </contour>
    <contour>
      <point x="598" y="241" type="qcurve"/>
      <point x="598" y="700" type="line"/>
      <point x="620" y="700" type="line"/>
      <point x="620" y="0" type="line"/>
      <point x="600" y="0" type="line"/>
      <point x="115" y="686" type="line"/>
      <point x="130" y="686" type="line"/>
      <point x="131" y="661"/>
      <point x="133" y="525"/>
      <point x="132" y="470" type="qcurve"/>
      <point x="132" y="0" type="line"/>
      <point x="110" y="0" type="line"/>
      <point x="110" y="700" type="line"/>
      <point x="132" y="700" type="line"/>
      <point x="605" y="31" type="line"/>
      <point x="601" y="31" type="line"/>
      <point x="601" y="75"/>
      <point x="599" y="177"/>
    </contour>
  </outline>
</glyph>
<glyph name="partialdiff" format="2">
  <advance width="590"/>
  <unicode hex="2202"/>
  <note>
partialdiff
</note>
  <outline>
    <contour>
      <point x="543" y="271" type="qcurve"/>
      <point x="541" y="150"/>
      <point x="402" y="-10"/>
      <point x="295" y="-10" type="qcurve"/>
      <point x="185" y="-10"/>
      <point x="47" y="142"/>
      <point x="47" y="263" type="qcurve"/>
      <point x="47" y="382"/>
      <point x="189" y="527"/>
      <point x="299" y="527" type="qcurve"/>
      <point x="382" y="527"/>
      <point x="511" y="423"/>
      <point x="518" y="369" type="qcurve"/>
      <point x="508" y="371" type="line"/>
      <point x="508" y="501"/>
      <point x="333" y="698"/>
      <point x="209" y="719" type="qcurve"/>
      <point x="218" y="738" type="line"/>
      <point x="278" y="729"/>
      <point x="384" y="670"/>
      <point x="430" y="625" type="qcurve" smooth="yes"/>
      <point x="484" y="572"/>
      <point x="543" y="391"/>
    </contour>
    <contour>
      <point x="70" y="263" type="qcurve" smooth="yes"/>
      <point x="70" y="153"/>
      <point x="196" y="12"/>
      <point x="295" y="12" type="qcurve"/>
      <point x="394" y="12"/>
      <point x="520" y="153"/>
      <point x="520" y="263" type="qcurve" smooth="yes"/>
      <point x="520" y="370"/>
      <point x="394" y="505"/>
      <point x="295" y="505" type="qcurve"/>
      <point x="196" y="505"/>
      <point x="70" y="370"/>
    </contour>
  </outline>
</glyph>
<glyph name="increment" format="2">
  <advance width="707"/>
  <unicode hex="2206"/>
  <note>
increment
</note>
  <guideline x="350" y="681" angle="270" identifier="3WpAOFuGhn"/>
  <outline>
    <contour>
      <point x="358" y="707" type="line"/>
      <point x="692" y="14" type="line"/>
      <point x="682" y="0" type="line"/>
      <point x="25" y="0" type="line"/>
      <point x="15" y="14" type="line"/>
      <point x="344" y="707" type="line"/>
    </contour>
    <contour>
      <point x="355" y="669" type="line"/>
      <point x="38" y="9" type="line"/>
      <point x="30" y="22" type="line"/>
      <point x="673" y="22" type="line"/>
      <point x="667" y="10" type="line"/>
      <point x="347" y="669" type="line"/>
    </contour>
  </outline>
</glyph>
<glyph name="divisionslash" format="2">
  <advance width="551"/>
  <unicode hex="2215"/>
  <note>
divisionslash
</note>
  <outline>
    <contour>
      <point x="84" y="-107.0" type="line"/>
      <point x="58" y="-107.0" type="line"/>
      <point x="482" y="756.0" type="line"/>
      <point x="508" y="756.0" type="line"/>
    </contour>
  </outline>
</glyph>
<glyph name="infinity" format="2">
  <advance width="867"/>
  <unicode hex="221E"/>
  <outline>
    <contour>
      <point x="203.0" y="47.0" type="qcurve" smooth="yes"/>
      <point x="128.43820224719101" y="47.0"/>
      <point x="35.0" y="152.0"/>
      <point x="35.0" y="242.0" type="qcurve"/>
      <point x="35.0" y="332.0"/>
      <point x="128.43820224719101" y="437.0"/>
      <point x="203.0" y="437.0" type="qcurve" smooth="yes"/>
      <point x="253.85714285714286" y="437.0"/>
      <point x="334" y="393"/>
      <point x="381.0" y="331.0" type="qcurve" smooth="yes"/>
      <point x="515.0" y="153.0" type="line" smooth="yes"/>
      <point x="549" y="108"/>
      <point x="621.2262773722628" y="69.0"/>
      <point x="662.0" y="69.0" type="qcurve"/>
      <point x="722.859872611465" y="69.0"/>
      <point x="809.0" y="162.0"/>
      <point x="809.0" y="242.0" type="qcurve"/>
      <point x="809.0" y="321.0"/>
      <point x="721.670731707317" y="415.0"/>
      <point x="655.0" y="415" type="qcurve" smooth="yes"/>
      <point x="622.3913043478261" y="415.0"/>
      <point x="556" y="386"/>
      <point x="530" y="351" type="qcurve" smooth="yes"/>
      <point x="381.0" y="153" type="line" smooth="yes"/>
      <point x="334.0515567256356" y="90.61213578305933"/>
      <point x="253.85714285714286" y="47.0"/>
    </contour>
    <contour>
      <point x="58.0" y="242.0" type="qcurve"/>
      <point x="58.0" y="162.0"/>
      <point x="144.14012738853503" y="69.0"/>
      <point x="205.0" y="69" type="qcurve"/>
      <point x="245.77372262773724" y="69.0"/>
      <point x="318" y="108"/>
      <point x="352" y="153" type="qcurve" smooth="yes"/>
      <point x="498.0" y="346" type="line" smooth="yes"/>
      <point x="539.8953077671354" y="401.38215341819955"/>
      <point x="616.2077922077922" y="437.0"/>
      <point x="662.0" y="437.0" type="qcurve" smooth="yes"/>
      <point x="736.6111111111111" y="437.0"/>
      <point x="832.0" y="331.0"/>
      <point x="832.0" y="242.0" type="qcurve"/>
      <point x="832.0" y="152.0"/>
      <point x="738.561797752809" y="47.0"/>
      <point x="664.0" y="47.0" type="qcurve" smooth="yes"/>
      <point x="613.1428571428571" y="47.0"/>
      <point x="533" y="91"/>
      <point x="486.0" y="153.0" type="qcurve" smooth="yes"/>
      <point x="352.0" y="331.0" type="line" smooth="yes"/>
      <point x="316" y="379"/>
      <point x="245.77372262773724" y="415.0"/>
      <point x="205.0" y="415.0" type="qcurve"/>
      <point x="144.14012738853503" y="415.0"/>
      <point x="58.0" y="322.0"/>
    </contour>
  </outline>
</glyph>
<glyph name="integral" format="2">
  <advance width="553"/>
  <unicode hex="222B"/>
  <note>
integral
</note>
  <outline>
    <contour>
      <point x="107.0" y="-127.0" type="qcurve"/>
      <point x="80.97297297297297" y="-127.0"/>
      <point x="25.45818444290625" y="-102.54154068245913"/>
      <point x="0.0" y="-81.0" type="qcurve"/>
      <point x="14" y="-61" type="line"/>
      <point x="44.29411718578273" y="-87.38519883923013"/>
      <point x="84.05050505050505" y="-105.0"/>
      <point x="109.0" y="-105" type="qcurve"/>
      <point x="152.52727272727273" y="-105.0"/>
      <point x="208.38078811977522" y="-13.93558286358541"/>
      <point x="223" y="68.0" type="qcurve" smooth="yes"/>
      <point x="309" y="550.0" type="line" smooth="yes"/>
      <point x="331" y="672"/>
      <point x="406" y="748"/>
      <point x="448.0" y="748.0" type="qcurve" smooth="yes"/>
      <point x="489.0" y="748.0"/>
      <point x="542" y="723"/>
      <point x="561.0" y="710.0" type="qcurve"/>
      <point x="548" y="688" type="line"/>
      <point x="529" y="702"/>
      <point x="481.0" y="723.0"/>
      <point x="445.0" y="723" type="qcurve" smooth="yes"/>
      <point x="405.0" y="723.0"/>
      <point x="349" y="635"/>
      <point x="334" y="551.0" type="qcurve" smooth="yes"/>
      <point x="248" y="71.0" type="line" smooth="yes"/>
      <point x="230.23793459395853" y="-28.137109243022195"/>
      <point x="164.63503649635038" y="-127.0"/>
    </contour>
  </outline>
</glyph>
<glyph name="approxequal" format="2">
  <advance width="547"/>
  <unicode hex="2248"/>
  <note>
approxequal
</note>
  <outline>
    <contour>
      <point x="375" y="338" type="qcurve"/>
      <point x="362" y="338"/>
      <point x="309" y="350"/>
      <point x="256" y="361" type="qcurve" smooth="yes"/>
      <point x="217" y="369"/>
      <point x="184" y="375"/>
      <point x="177" y="375" type="qcurve"/>
      <point x="144" y="375"/>
      <point x="122" y="343"/>
      <point x="122" y="320" type="qcurve"/>
      <point x="100" y="322" type="line"/>
      <point x="100" y="358"/>
      <point x="136" y="397"/>
      <point x="172" y="397" type="qcurve"/>
      <point x="186" y="397"/>
      <point x="237" y="386"/>
      <point x="293" y="374" type="qcurve" smooth="yes"/>
      <point x="331" y="367"/>
      <point x="362" y="360"/>
      <point x="370" y="360" type="qcurve"/>
      <point x="403" y="360"/>
      <point x="425" y="392"/>
      <point x="425" y="415" type="qcurve"/>
      <point x="447" y="413" type="line"/>
      <point x="447" y="377"/>
      <point x="411" y="338"/>
    </contour>
    <contour>
      <point x="375" y="151" type="qcurve"/>
      <point x="362" y="151"/>
      <point x="309" y="163"/>
      <point x="256" y="174" type="qcurve" smooth="yes"/>
      <point x="217" y="182"/>
      <point x="184" y="188"/>
      <point x="177" y="188" type="qcurve"/>
      <point x="144" y="188"/>
      <point x="122" y="156"/>
      <point x="122" y="133" type="qcurve"/>
      <point x="100" y="135" type="line"/>
      <point x="100" y="171"/>
      <point x="136" y="210"/>
      <point x="172" y="210" type="qcurve"/>
      <point x="186" y="210"/>
      <point x="237" y="199"/>
      <point x="293" y="187" type="qcurve" smooth="yes"/>
      <point x="331" y="180"/>
      <point x="362" y="173"/>
      <point x="370" y="173" type="qcurve"/>
      <point x="403" y="173"/>
      <point x="425" y="205"/>
      <point x="425" y="228" type="qcurve"/>
      <point x="447" y="227" type="line"/>
      <point x="447" y="191"/>
      <point x="411" y="151"/>
    </contour>
  </outline>
</glyph>
<glyph name="notequal" format="2">
  <advance width="566"/>
  <unicode hex="2260"/>
  <note>
notequal
</note>
  <guideline x="334" y="509" angle="0" identifier="lApVgvxS7J"/>
  <outline>
    <contour>
      <point x="142" y="46" type="line"/>
      <point x="400" y="516" type="line"/>
      <point x="426" y="516" type="line"/>
      <point x="168" y="46" type="line"/>
    </contour>
    <contour>
      <point x="501" y="349" type="line"/>
      <point x="65" y="349" type="line"/>
      <point x="65" y="371" type="line"/>
      <point x="501" y="371" type="line"/>
    </contour>
    <contour>
      <point x="501" y="191" type="line"/>
      <point x="65" y="191" type="line"/>
      <point x="65" y="213" type="line"/>
      <point x="501" y="213" type="line"/>
    </contour>
  </outline>
</glyph>
<glyph name="lozenge" format="2">
  <advance width="596"/>
  <unicode hex="25CA"/>
  <note>
lozenge
</note>
  <guideline x="299" y="669" angle="270" identifier="o7JisqeFAG"/>
  <guideline x="79" y="328" angle="0" identifier="wizVCiE95x"/>
  <outline>
    <contour>
      <point x="299" y="-37" type="line"/>
      <point x="299" y="-37" type="line"/>
      <point x="36" y="328" type="line"/>
      <point x="36" y="328" type="line"/>
      <point x="299" y="689" type="line"/>
      <point x="299" y="689" type="line"/>
      <point x="560" y="328" type="line"/>
      <point x="560" y="328" type="line"/>
    </contour>
    <contour>
      <point x="55" y="343" type="line"/>
      <point x="308" y="-9" type="line"/>
      <point x="290" y="-9" type="line"/>
      <point x="543" y="346" type="line"/>
      <point x="543" y="310" type="line"/>
      <point x="286" y="667" type="line"/>
      <point x="312" y="667" type="line"/>
      <point x="55" y="313" type="line"/>
    </contour>
  </outline>
</glyph>
<glyph name="alef-ar.fina" format="2">
  <advance width="310"/>
  <unicode hex="FE8E"/>
  <anchor x="132.0" y="0" name="bottom"/>
  <anchor x="132.0" y="700.0" name="top"/>
  <outline>
    <contour>
      <point x="109" y="152" type="qcurve" smooth="yes"/>
      <point x="109" y="740" type="line"/>
      <point x="147" y="740" type="line"/>
      <point x="147" y="152" type="line" smooth="yes"/>
      <point x="147" y="88"/>
      <point x="196" y="38"/>
      <point x="261" y="38" type="qcurve" smooth="yes"/>
      <point x="310" y="38" type="line"/>
      <point x="310" y="0" type="line"/>
      <point x="261" y="0" type="line" smooth="yes"/>
      <point x="185" y="0"/>
      <point x="109" y="76"/>
    </contour>
  </outline>
</glyph>
<glyph name="seen-ar.init" format="2">
  <advance width="925"/>
  <unicode hex="FEB3"/>
  <outline>
    <contour>
      <point x="432.0" y="68.0" type="qcurve"/>
      <point x="487.0" y="136.0" type="line"/>
      <point x="517.0" y="119.0"/>
      <point x="592.0" y="102.0"/>
      <point x="635.0" y="102.0" type="qcurve"/>
      <point x="763.0" y="102.0" type="line"/>
      <point x="763.0" y="158.0"/>
      <point x="730.0" y="268.0"/>
      <point x="688.0" y="346.0" type="qcurve"/>
      <point x="779.0" y="438.0" type="line"/>
      <point x="846.0" y="292.0"/>
      <point x="862.0" y="98.0"/>
      <point x="827.0" y="0.0" type="qcurve"/>
      <point x="658.0" y="0.0" type="line" smooth="yes"/>
      <point x="594.0" y="0.0"/>
      <point x="486.0" y="32.0"/>
    </contour>
    <contour>
      <point x="313.0" y="102.0" type="qcurve"/>
      <point x="393.0" y="102.0" type="line"/>
      <point x="410.0" y="130.0"/>
      <point x="441.0" y="242.0"/>
      <point x="445.0" y="289.0" type="qcurve"/>
      <point x="566.0" y="331.0" type="line"/>
      <point x="545.0" y="232.0"/>
      <point x="483.0" y="81.0"/>
      <point x="428.0" y="0.0" type="qcurve"/>
      <point x="336.0" y="0.0" type="line" smooth="yes"/>
      <point x="272.0" y="0.0"/>
      <point x="164.0" y="32.0"/>
      <point x="110.0" y="68.0" type="qcurve"/>
      <point x="165.0" y="136.0" type="line"/>
      <point x="195.0" y="119.0"/>
      <point x="270.0" y="102.0"/>
    </contour>
    <contour>
      <point x="0.0" y="0.0" type="line"/>
      <point x="0.0" y="102.0" type="line"/>
      <point x="133.0" y="102.0" type="line"/>
      <point x="150.0" y="130.0"/>
      <point x="181.0" y="242.0"/>
      <point x="185.0" y="289.0" type="qcurve"/>
      <point x="306.0" y="331.0" type="line"/>
      <point x="285.0" y="232.0"/>
      <point x="223.0" y="81.0"/>
      <point x="168.0" y="0.0" type="qcurve"/>
    </contour>
  </outline>
</glyph>
<glyph name="I.ss01" format="2">
  <advance width="308"/>
  <note>
I
</note>
  <outline>
    <contour>
      <point x="164.50088195396324" y="700.0" type="qcurve"/>
      <point x="164.50088195396324" y="0.0" type="line"/>
      <point x="143.49911804603676" y="0.0" type="line"/>
      <point x="143.49911804603676" y="700.0" type="line"/>
      <point x="149.49954381691558" y="700.0"/>
      <point x="158.50045618308442" y="700.0"/>
    </contour>
  </outline>
</glyph>
<glyph name="Iogonek.ss01" format="2">
  <advance width="166"/>
  <note>
Iogonek
</note>
  <outline>
    <contour>
      <point x="94" y="0" type="line"/>
      <point x="54" y="-27"/>
      <point x="1.0" y="-97.0"/>
      <point x="1" y="-130" type="qcurve" smooth="yes"/>
      <point x="1" y="-163"/>
      <point x="43" y="-208"/>
      <point x="74" y="-208" type="qcurve" smooth="yes"/>
      <point x="98" y="-208"/>
      <point x="133" y="-183"/>
      <point x="144" y="-163" type="qcurve"/>
      <point x="159" y="-176" type="line"/>
      <point x="147" y="-200"/>
      <point x="102" y="-230"/>
      <point x="74" y="-230" type="qcurve" smooth="yes"/>
      <point x="32" y="-230"/>
      <point x="-21" y="-173"/>
      <point x="-21" y="-130" type="qcurve" smooth="yes"/>
      <point x="-21.0" y="-90.0"/>
      <point x="46" y="-9"/>
      <point x="87" y="18" type="qcurve"/>
      <point x="94" y="8" type="line"/>
    </contour>
    <component base="l"/>
  </outline>
</glyph>
<glyph name="acutecomb.case" format="2">
  <outline>
    <contour>
      <point x="208" y="704" type="line"/>
      <point x="62" y="605" type="line"/>
      <point x="52" y="620" type="line"/>
      <point x="194" y="725" type="line"/>
    </contour>
  </outline>
</glyph>
<glyph name="circumflexcomb.case" format="2">
  <advance width="362"/>
  <outline>
    <contour>
      <point x="290" y="635" type="line"/>
      <point x="174" y="727" type="line"/>
      <point x="189" y="727" type="line"/>
      <point x="72" y="635" type="line"/>
      <point x="60" y="648" type="line"/>
      <point x="167" y="740" type="line"/>
      <point x="195" y="740" type="line"/>
      <point x="302" y="648" type="line"/>
    </contour>
  </outline>
</glyph>
<glyph name="commaaccentcomb.case" format="2">
  <anchor x="103" y="0" name="_bottom"/>
  <anchor x="103" y="-289" name="bottom"/>
  <outline>
    <contour>
      <point x="87" y="-204" type="qcurve"/>
      <point x="74" y="-191" type="line"/>
      <point x="96" y="-172"/>
      <point x="108" y="-153"/>
      <point x="108" y="-144" type="qcurve"/>
      <point x="108" y="-136"/>
      <point x="102" y="-126"/>
      <point x="91" y="-121" type="qcurve" smooth="yes"/>
      <point x="81" y="-116"/>
      <point x="71" y="-102"/>
      <point x="71" y="-92" type="qcurve"/>
      <point x="71" y="-83"/>
      <point x="85" y="-68"/>
      <point x="98" y="-68" type="qcurve"/>
      <point x="115.0" y="-68.0"/>
      <point x="134.0" y="-93"/>
      <point x="134" y="-114" type="qcurve"/>
      <point x="134" y="-140"/>
      <point x="116" y="-181"/>
    </contour>
  </outline>
</glyph>
<glyph name="dblgravecomb.case" format="2">
  <anchor x="248" y="490" name="_top"/>
  <anchor x="248" y="709" name="top"/>
  <outline>
    <contour>
      <point x="209" y="640" type="line"/>
      <point x="199" y="625" type="line"/>
      <point x="53" y="724" type="line"/>
      <point x="67" y="745" type="line"/>
    </contour>
    <contour>
      <point x="346" y="640" type="line"/>
      <point x="336" y="625" type="line"/>
      <point x="190" y="724" type="line"/>
      <point x="204" y="745" type="line"/>
    </contour>
  </outline>
</glyph>
<glyph name="dieresiscomb.case" format="2">
  <anchor x="167" y="525" name="_top"/>
  <anchor x="167" y="682" name="top"/>
  <outline>
    <contour>
      <point x="116" y="683" type="qcurve" smooth="yes"/>
      <point x="116.0" y="671.0"/>
      <point x="103" y="656.0"/>
      <point x="89" y="656" type="qcurve" smooth="yes"/>
      <point x="77" y="656.0"/>
      <point x="62.0" y="671.0"/>
      <point x="62" y="683" type="qcurve" smooth="yes"/>
      <point x="62.0" y="694.0"/>
      <point x="76" y="710.0"/>
      <point x="89" y="710" type="qcurve" smooth="yes"/>
      <point x="103" y="710.0"/>
      <point x="116.0" y="695.0"/>
    </contour>
    <contour>
      <point x="266" y="683" type="qcurve" smooth="yes"/>
      <point x="266.0" y="671.0"/>
      <point x="253" y="656.0"/>
      <point x="239" y="656" type="qcurve" smooth="yes"/>
      <point x="227" y="656.0"/>
      <point x="212.0" y="671.0"/>
      <point x="212" y="683" type="qcurve" smooth="yes"/>
      <point x="212.0" y="694"/>
      <point x="226.0" y="710.0"/>
      <point x="239" y="710" type="qcurve" smooth="yes"/>
      <point x="253" y="710.0"/>
      <point x="266.0" y="695.0"/>
    </contour>
  </outline>
</glyph>
<glyph name="g.ss01" format="2">
  <advance width="580"/>
  <guideline x="940" y="531" angle="0" identifier="kFtR80qHX2"/>
  <guideline x="274" y="350" angle="270" name="center" identifier="opgAZz5nif"/>
  <anchor x="300" y="520" name="top"/>
  <outline>
    <contour>
      <point x="85" y="357" type="qcurve"/>
      <point x="85" y="429"/>
      <point x="199" y="531"/>
      <point x="280" y="531" type="qcurve"/>
      <point x="298" y="531"/>
      <point x="340" y="524"/>
      <point x="378" y="510" type="qcurve"/>
      <point x="319" y="520" type="line"/>
      <point x="521" y="520" type="line"/>
      <point x="521" y="498" type="line"/>
      <point x="365" y="498" type="line"/>
      <point x="365" y="513" type="line"/>
      <point x="427" y="481"/>
      <point x="475" y="403"/>
      <point x="475" y="357" type="qcurve"/>
      <point x="475" y="284"/>
      <point x="361.0" y="180.0"/>
      <point x="280" y="180" type="qcurve" smooth="yes"/>
      <point x="183" y="180" type="line"/>
      <point x="150" y="180"/>
      <point x="114" y="150"/>
      <point x="114" y="130" type="qcurve"/>
      <point x="114" y="105"/>
      <point x="151" y="79"/>
      <point x="183" y="79" type="qcurve"/>
      <point x="288" y="79" type="line" smooth="yes"/>
      <point x="395" y="79"/>
      <point x="517" y="-4"/>
      <point x="517" y="-76" type="qcurve" smooth="yes"/>
      <point x="517" y="-142"/>
      <point x="395" y="-231"/>
      <point x="288" y="-231" type="qcurve" smooth="yes"/>
      <point x="176" y="-231"/>
      <point x="59" y="-142"/>
      <point x="59" y="-76" type="qcurve" smooth="yes"/>
      <point x="59.0" y="-17.0"/>
      <point x="146" y="59"/>
      <point x="211" y="70" type="qcurve"/>
      <point x="202" y="58" type="line"/>
      <point x="136.0" y="58"/>
      <point x="91.0" y="102.0"/>
      <point x="91" y="129" type="qcurve"/>
      <point x="91" y="159"/>
      <point x="141" y="202"/>
      <point x="218" y="202" type="qcurve"/>
      <point x="217" y="187" type="line"/>
      <point x="145" y="218"/>
      <point x="85" y="306"/>
    </contour>
    <contour>
      <point x="280" y="509" type="qcurve"/>
      <point x="207" y="509"/>
      <point x="108" y="421"/>
      <point x="108" y="357" type="qcurve"/>
      <point x="108" y="290"/>
      <point x="207" y="202"/>
      <point x="280" y="202" type="qcurve" smooth="yes"/>
      <point x="353" y="202"/>
      <point x="452" y="287"/>
      <point x="452" y="357" type="qcurve"/>
      <point x="452" y="420"/>
      <point x="353" y="509"/>
    </contour>
    <contour>
      <point x="287" y="-209" type="qcurve" smooth="yes"/>
      <point x="382" y="-209"/>
      <point x="494" y="-133"/>
      <point x="494" y="-76" type="qcurve" smooth="yes"/>
      <point x="494" y="-14"/>
      <point x="382" y="57"/>
      <point x="287" y="57" type="qcurve" smooth="yes"/>
      <point x="194" y="57"/>
      <point x="82" y="-14"/>
      <point x="82" y="-76" type="qcurve" smooth="yes"/>
      <point x="82" y="-133"/>
      <point x="194" y="-209"/>
    </contour>
  </outline>
</glyph>
<glyph name="gravecomb.case" format="2">
  <anchor x="107.00121648822514" y="520.4999695877943" name="_top"/>
  <anchor x="147.49954381691558" y="728.000729892935" name="top"/>
  <outline>
    <contour>
      <point x="213" y="620" type="line"/>
      <point x="203" y="605" type="line"/>
      <point x="57" y="704" type="line"/>
      <point x="71" y="725" type="line"/>
    </contour>
  </outline>
</glyph>
<glyph name="hookabovecomb.case" format="2">
  <outline>
    <contour>
      <point x="83" y="698" type="qcurve"/>
      <point x="71" y="713" type="line"/>
      <point x="88" y="734"/>
      <point x="132" y="759.0"/>
      <point x="159" y="759" type="qcurve"/>
      <point x="192" y="759.0"/>
      <point x="229.0" y="723.0"/>
      <point x="229" y="694" type="qcurve"/>
      <point x="229.0" y="675"/>
      <point x="211.70863696258598" y="647.708636962586"/>
      <point x="200" y="636" type="qcurve" smooth="yes"/>
      <point x="183.71007325258066" y="620.7281936742944"/>
      <point x="168.00000521864567" y="598.0000991542673"/>
      <point x="167" y="579.0" type="qcurve"/>
      <point x="146" y="579.0" type="line"/>
      <point x="146.0" y="597.6984126984127"/>
      <point x="165.59579089445242" y="629.6294749865814"/>
      <point x="178" y="641" type="qcurve" smooth="yes"/>
      <point x="186.9057732547579" y="649.9057732547578"/>
      <point x="208.0" y="676.0"/>
      <point x="208" y="692" type="qcurve"/>
      <point x="208.0" y="715"/>
      <point x="182.0" y="738.0"/>
      <point x="156" y="738" type="qcurve"/>
      <point x="135" y="738.0"/>
      <point x="100.69487145226766" y="717.7766210348874"/>
    </contour>
  </outline>
</glyph>
<glyph name="macronbelowcomb.case" format="2">
  <anchor x="172.5005170074957" y="2.9999391755887426" name="_bottom"/>
  <anchor x="198.0" y="-230.0" name="bottom"/>
  <outline>
    <contour>
      <point x="342" y="-108" type="line"/>
      <point x="87" y="-108" type="line"/>
      <point x="87" y="-98" type="line"/>
      <point x="87" y="-86" type="line"/>
      <point x="342" y="-86" type="line"/>
      <point x="342" y="-97" type="line"/>
    </contour>
  </outline>
</glyph>
<glyph name="macroncomb.case" format="2">
  <anchor x="214.0" y="536.0" name="_top"/>
  <anchor x="214.0" y="709.0" name="top"/>
  <outline>
    <contour>
      <point x="349" y="613" type="line"/>
      <point x="79" y="613" type="line"/>
      <point x="79" y="635" type="line"/>
      <point x="349" y="635" type="line"/>
    </contour>
  </outline>
</glyph>
<glyph name="reh-ar.fina.yeh" format="2">
  <advance width="424"/>
  <outline>
    <contour>
      <point x="173.0" y="192.0" type="qcurve"/>
      <point x="312.0" y="81.0" type="line"/>
      <point x="312.0" y="22.0"/>
      <point x="273.0" y="-92.0"/>
      <point x="238.0" y="-135.0" type="qcurve" smooth="yes"/>
      <point x="200.0" y="-182.0"/>
      <point x="96.0" y="-230.0"/>
      <point x="33.0" y="-230.0" type="qcurve" smooth="yes"/>
      <point x="-20.0" y="-230.0"/>
      <point x="-130.0" y="-186.0"/>
      <point x="-171.0" y="-148.0" type="qcurve"/>
      <point x="-96.0" y="-249.0" type="line"/>
      <point x="-36.0" y="-79.0" type="line"/>
      <point x="-141.0" y="-83.0" type="line"/>
      <point x="-101.0" y="-103.0"/>
      <point x="-13.0" y="-128.0"/>
      <point x="17.0" y="-128.0" type="qcurve" smooth="yes"/>
      <point x="106.0" y="-128.0"/>
      <point x="218.0" y="-11.0"/>
      <point x="218.0" y="81.0" type="qcurve"/>
      <point x="218.0" y="103.0"/>
      <point x="206.0" y="141.0"/>
    </contour>
    <contour>
      <point x="212.0" y="131.0" type="qcurve"/>
      <point x="91.0" y="320.0" type="line"/>
      <point x="165.0" y="413.0" type="line"/>
      <point x="300.0" y="185.0" type="line" smooth="yes"/>
      <point x="330.0" y="133.0"/>
      <point x="375.0" y="102.0"/>
      <point x="414.0" y="102.0" type="qcurve"/>
      <point x="424.0" y="102.0" type="line"/>
      <point x="424.0" y="0.0" type="line"/>
      <point x="414.0" y="0.0" type="line" smooth="yes"/>
      <point x="349.0" y="0.0"/>
      <point x="258.0" y="58.0"/>
    </contour>
  </outline>
</glyph>
<glyph name="ringcomb.case" format="2">
  <anchor x="159.0" y="700.0" name="_top"/>
  <anchor x="159.0" y="991.0" name="top"/>
  <outline>
    <contour>
      <point x="253" y="745" type="qcurve"/>
      <point x="253" y="710"/>
      <point x="198" y="657"/>
      <point x="161" y="657" type="qcurve"/>
      <point x="124" y="657"/>
      <point x="69" y="709"/>
      <point x="69" y="745" type="qcurve"/>
      <point x="69" y="782"/>
      <point x="123" y="835"/>
      <point x="161" y="835" type="qcurve"/>
      <point x="199" y="835"/>
      <point x="253" y="782"/>
    </contour>
    <contour>
      <point x="90" y="745" type="qcurve"/>
      <point x="90" y="718"/>
      <point x="132" y="677"/>
      <point x="161" y="677" type="qcurve"/>
      <point x="191" y="677"/>
      <point x="232" y="718"/>
      <point x="232" y="745" type="qcurve"/>
      <point x="232" y="777"/>
      <point x="191" y="815"/>
      <point x="161" y="815" type="qcurve"/>
      <point x="130" y="815"/>
      <point x="90" y="776"/>
    </contour>
  </outline>
</glyph>
<glyph name="six.dnom" format="2">
  <advance width="343"/>
  <outline>
    <contour>
      <point x="289" y="108" type="qcurve" smooth="yes"/>
      <point x="289.0" y="58.0"/>
      <point x="221" y="-10"/>
      <point x="172" y="-10" type="qcurve" smooth="yes"/>
      <point x="118" y="-10.0"/>
      <point x="52.0" y="62"/>
      <point x="52.0" y="130" type="qcurve"/>
      <point x="52.0" y="233.0"/>
      <point x="119" y="358.0"/>
      <point x="196.0" y="358" type="qcurve"/>
      <point x="216" y="358.0"/>
      <point x="251" y="346"/>
      <point x="271.0" y="330" type="qcurve"/>
      <point x="261.0" y="311" type="line"/>
      <point x="245" y="323"/>
      <point x="213" y="336.0"/>
      <point x="193.0" y="336" type="qcurve"/>
      <point x="134" y="336.0"/>
      <point x="77" y="240"/>
      <point x="73.0" y="151" type="qcurve"/>
      <point x="64" y="140" type="line"/>
      <point x="76" y="181"/>
      <point x="133" y="225.0"/>
      <point x="172" y="225" type="qcurve" smooth="yes"/>
      <point x="221" y="225"/>
      <point x="289" y="157"/>
    </contour>
    <contour>
      <point x="76" y="107" type="qcurve" smooth="yes"/>
      <point x="76.0" y="67"/>
      <point x="131.0" y="11.0"/>
      <point x="171" y="11" type="qcurve" smooth="yes"/>
      <point x="211" y="11.0"/>
      <point x="268.0" y="67.0"/>
      <point x="268" y="107" type="qcurve" smooth="yes"/>
      <point x="268.0" y="147"/>
      <point x="211.0" y="204.0"/>
      <point x="171" y="204" type="qcurve" smooth="yes"/>
      <point x="131.0" y="204.0"/>
      <point x="76.0" y="147"/>
    </contour>
  </outline>
</glyph>
<glyph name="three.dnom" format="2">
  <advance width="342"/>
  <outline>
    <contour>
      <point x="297" y="108" type="qcurve"/>
      <point x="297.0" y="57.0"/>
      <point x="226" y="-10.0"/>
      <point x="174" y="-10.0" type="qcurve"/>
      <point x="146" y="-10.0"/>
      <point x="86.99981752676622" y="9.0"/>
      <point x="65.99981752676622" y="24.0" type="qcurve"/>
      <point x="78" y="42" type="line"/>
      <point x="109" y="23"/>
      <point x="151" y="12.0"/>
      <point x="172" y="12" type="qcurve"/>
      <point x="217" y="12.0"/>
      <point x="275.0" y="63.0"/>
      <point x="275" y="107" type="qcurve"/>
      <point x="275.0" y="146"/>
      <point x="219.0" y="194.0"/>
      <point x="181" y="194" type="qcurve"/>
      <point x="156.54430379746836" y="194.0"/>
      <point x="123.81959002776975" y="184.15889871134814"/>
      <point x="97" y="169" type="qcurve"/>
      <point x="92" y="184" type="line"/>
      <point x="249" y="334" type="line"/>
      <point x="254" y="329" type="line"/>
      <point x="80" y="329" type="line"/>
      <point x="80" y="350.0" type="line"/>
      <point x="266" y="350.0" type="line"/>
      <point x="270" y="326" type="line"/>
      <point x="124" y="187" type="line"/>
      <point x="107" y="187" type="line"/>
      <point x="134.4027545078008" y="205.26850300520056"/>
      <point x="166.43589743589746" y="215.0"/>
      <point x="183" y="215" type="qcurve"/>
      <point x="229.82142857142856" y="215.0"/>
      <point x="297.0" y="155.0"/>
    </contour>
  </outline>
</glyph>
<glyph name="tildecomb.case" format="2">
  <anchor x="210" y="465" name="_top"/>
  <anchor x="220" y="733" name="top"/>
  <outline>
    <contour>
      <point x="107" y="599" type="qcurve"/>
      <point x="85" y="599" type="line"/>
      <point x="85.0" y="630.0"/>
      <point x="120" y="666.0"/>
      <point x="142" y="666" type="qcurve"/>
      <point x="166" y="666.0"/>
      <point x="208" y="646"/>
      <point x="226" y="637" type="qcurve" smooth="yes"/>
      <point x="233" y="634"/>
      <point x="263" y="620.0"/>
      <point x="276" y="620" type="qcurve"/>
      <point x="295" y="620.0"/>
      <point x="327" y="641"/>
      <point x="328" y="665" type="qcurve"/>
      <point x="350" y="665" type="line"/>
      <point x="350.0" y="633"/>
      <point x="307" y="598"/>
      <point x="278" y="598" type="qcurve"/>
      <point x="254" y="598.0"/>
      <point x="213" y="618"/>
      <point x="196" y="626" type="qcurve" smooth="yes"/>
      <point x="190" y="629"/>
      <point x="159" y="644.0"/>
      <point x="144" y="644" type="qcurve"/>
      <point x="130" y="644.0"/>
      <point x="107" y="621"/>
    </contour>
  </outline>
</glyph>
